<svg aria-hidden="true" style="width:0;height:0;position:absolute;overflow:hidden" xmlns="http://www.w3.org/2000/svg"><defs><symbol id="gotop" viewBox="0 0 32 32"><path d="M4.5 19.6 15.7 8.367c.133-.133.278-.228.433-.283s.322-.084.5-.084.345.028.5.084.3.149.433.283L28.799 19.6c.311.311.467.7.467 1.167s-.167.867-.5 1.2c-.333.333-.722.5-1.167.5s-.833-.167-1.167-.5l-9.8-9.8-9.8 9.8c-.311.311-.694.467-1.149.467s-.851-.167-1.184-.5-.5-.722-.5-1.167c0-.444.167-.833.5-1.167z"/></symbol><symbol id="gh" viewBox="0 0 24 24"><path d="M12 0C5.373 0 0 5.508 0 12.304c0 5.436 3.438 10.048 8.206 11.675.6.114.82-.267.82-.592 0-.293-.01-1.263-.016-2.29-3.338.743-4.043-1.453-4.043-1.453-.546-1.422-1.332-1.8-1.332-1.8-1.089-.763.082-.748.082-.748 1.205.087 1.84 1.268 1.84 1.268 1.07 1.881 2.807 1.337 3.491 1.023.108-.795.419-1.338.762-1.645-2.665-.311-5.467-1.366-5.467-6.08 0-1.344.469-2.442 1.236-3.303-.124-.31-.535-1.562.117-3.256 0 0 1.007-.331 3.3 1.26A11.23 11.23 0 0 1 12 5.95c1.02.005 2.047.141 3.006.414 2.29-1.592 3.297-1.261 3.297-1.261.653 1.694.242 2.946.118 3.256.769.861 1.235 1.959 1.235 3.302 0 4.726-2.808 5.766-5.48 6.071.43.382.814 1.13.814 2.279 0 1.646-.014 2.97-.014 3.376 0 .327.216.711.825.59C20.566 22.35 24 17.738 24 12.304 24 5.508 18.627 0 12 0Z"/></symbol><symbol id="goit" viewBox="0 0 80 24"><path fill="#FF5C00" d="M79.68 0C68.1.01 56.52.01 44.94 0c-.26 0-.33.06-.33.33.01 7.75.01 15.49.01 23.24v.29H80v-.31c0-7.74 0-15.47.01-23.21C80 .08 79.94 0 79.68 0Zm-22.3 17.3c-.75-.01-1.5 0-2.25-.01-.08 0-.15-.01-.24-.02V6.52c.09-.01.16-.02.24-.02.75 0 1.5.01 2.25-.01.22 0 .27.07.27.28-.01 3.41-.01 6.83 0 10.24 0 .22-.06.29-.27.29Zm12.05-8.19c-.85-.01-1.71 0-2.56-.01-.23 0-.29.07-.29.29.01 2.52 0 5.04.01 7.56 0 .26-.06.34-.33.34-.72-.02-1.45-.01-2.17 0-.22 0-.29-.07-.29-.29.01-2.51.01-5.03.01-7.54 0-.36 0-.36-.37-.36-.83 0-1.65-.01-2.48 0-.24 0-.31-.07-.31-.31.02-.66.02-1.32 0-1.98-.01-.26.07-.34.33-.34 1.4.01 2.81.01 4.21.01h4.11c.43 0 .43 0 .43.41 0 .63-.01 1.27.01 1.9.01.27-.08.32-.31.32Z"/><path d="M43.7 11.88C40.99 8 38.28 4.13 35.58.24c-.1-.15-.22-.19-.38-.19H0V24h35.2c.19 0 .29-.06.4-.21 2.08-2.98 4.17-5.95 6.25-8.92.65-.93 1.31-1.87 1.97-2.81l-.12-.18Zm-25.18 3.67c0 .1-.05.25-.12.31-1.78 1.45-3.79 1.99-6.04 1.46-2.56-.6-4.16-2.75-4.12-5.42.05-3.06 2.42-5.41 5.5-5.46 1.7-.03 3.21.41 4.5 1.62l-1.7 2.06c-.24-.18-.47-.37-.71-.53-.91-.6-1.9-.82-2.92-.42-1.22.48-1.77 1.47-1.83 2.74-.07 1.35.7 2.55 1.93 2.94.92.3 1.82.19 2.68-.24.13-.06.19-.15.18-.3-.01-.29 0-.58 0-.92h-2.25V11h4.91c.01.07.02.14.02.21-.02 1.44-.02 2.89-.03 4.34Zm9.44 1.91c-1.96.22-3.68-.29-5.04-1.75-2.68-2.89-1.56-8.04 2.86-9.11.47-.11.97-.14 1.45-.21 2.7.05 4.88 1.69 5.51 4.2.84 3.27-1.4 6.49-4.78 6.87Z"/><path d="M26.53 9.05c-1.34.32-2.21 1.46-2.21 2.96.01.1.01.23.02.37.01.09.03.19.05.28.25 1.08.87 1.85 1.94 2.17 1.07.32 2.05.12 2.86-.67.77-.76.98-1.7.83-2.74a2.86 2.86 0 0 0-3.49-2.37Z"/></symbol><symbol id="close-btn" viewBox="0 0 28 28"><path d="M5.94 5.94a1.5 1.5 0 0 1 2.12 0L14 11.878l5.94-5.94a1.5 1.5 0 0 1 2.12 2.122L16.122 14l5.94 5.94a1.5 1.5 0 0 1-2.122 2.12L14 16.122l-5.94 5.94a1.5 1.5 0 0 1-2.12-2.122L11.878 14l-5.94-5.94a1.5 1.5 0 0 1 0-2.12Z"/></symbol><symbol id="team-logo" viewBox="0 0 121 16"><path fill="#FF5C00" d="M53.989 6.923c-.27-.162-.48-.38-.631-.653a1.82 1.82 0 0 1-.227-.896c0-.324.074-.622.22-.896.148-.274.358-.492.632-.654a1.81 1.81 0 0 1 .939-.242c.345 0 .653.08.927.242.274.162.486.38.637.654.151.274.227.572.227.896 0 .511-.168.938-.506 1.28-.335.342-.77.511-1.299.511-.343 0-.65-.081-.92-.242Zm0 8.226c-.27-.161-.48-.38-.631-.653a1.825 1.825 0 0 1-.227-.896c0-.324.074-.622.22-.896.148-.274.358-.492.632-.654a1.81 1.81 0 0 1 .939-.242c.345 0 .653.08.927.242.274.162.486.38.637.654.151.274.227.574.227.896 0 .511-.168.938-.506 1.28-.335.342-.77.512-1.299.512-.343 0-.65-.08-.92-.242Zm5.428-8.226c-.27-.162-.48-.38-.63-.653a1.822 1.822 0 0 1-.227-.896c0-.324.074-.622.22-.896.147-.274.357-.492.631-.654a1.81 1.81 0 0 1 .94-.242c.344 0 .653.08.927.242.273.162.485.38.636.654.152.274.227.572.227.896 0 .511-.168.938-.505 1.28-.336.342-.77.511-1.3.511-.343 0-.65-.081-.919-.242Zm0 8.226c-.27-.161-.48-.38-.63-.653a1.826 1.826 0 0 1-.227-.896c0-.324.074-.622.22-.896.147-.274.357-.492.631-.654a1.81 1.81 0 0 1 .94-.242c.344 0 .653.08.927.242.273.162.485.38.636.654.152.274.227.574.227.896 0 .511-.168.938-.505 1.28-.336.342-.77.512-1.3.512-.343 0-.65-.08-.919-.242Z"/><path d="M67.438 15.125a6.242 6.242 0 0 1-2.283-2.373c-.55-.998-.825-2.092-.825-3.283 0-1.182.275-2.273.825-3.272a6.268 6.268 0 0 1 2.283-2.379c.97-.587 2.054-.88 3.252-.88 1.03 0 1.967.2 2.814.605a5.908 5.908 0 0 1 2.12 1.678 6.426 6.426 0 0 1 1.199 2.44h-2.959c-.272-.664-.685-1.167-1.24-1.511-.555-.344-1.196-.516-1.922-.516-.607 0-1.179.154-1.712.462-.536.307-.967.753-1.294 1.336-.326.582-.491 1.262-.491 2.037 0 .784.163 1.463.491 2.043a3.5 3.5 0 0 0 1.294 1.336 3.346 3.346 0 0 0 1.712.467c.735 0 1.38-.181 1.94-.544.56-.364.967-.913 1.222-1.648h2.947a6.512 6.512 0 0 1-1.168 2.534 5.777 5.777 0 0 1-2.127 1.726c-.854.411-1.796.617-2.826.617-1.198 0-2.283-.292-3.252-.875Zm14.002 0a6.269 6.269 0 0 1-2.317-2.367c-.56-.994-.838-2.09-.838-3.29 0-1.19.28-2.284.838-3.283a6.264 6.264 0 0 1 2.317-2.373c.987-.583 2.095-.875 3.325-.875 1.237 0 2.352.292 3.343.875a6.251 6.251 0 0 1 2.324 2.373c.56.999.838 2.093.838 3.284 0 1.198-.28 2.297-.838 3.296a6.205 6.205 0 0 1-2.329 2.366c-.994.58-2.11.869-3.349.869-1.223 0-2.327-.292-3.314-.875Zm5.187-2.314a3.474 3.474 0 0 0 1.293-1.366c.316-.583.473-1.242.473-1.978 0-.726-.157-1.385-.473-1.972a3.532 3.532 0 0 0-1.3-1.378c-.55-.332-1.165-.498-1.845-.498s-1.293.166-1.845.498a3.51 3.51 0 0 0-1.299 1.378c-.316.587-.473 1.244-.473 1.972 0 .736.157 1.394.473 1.978a3.506 3.506 0 0 0 1.293 1.366 3.525 3.525 0 0 0 1.851.492c.689 0 1.306-.163 1.852-.492Zm34.312-2.575h-9.619c.095.655.305 1.223.629 1.702s.726.845 1.21 1.098a3.36 3.36 0 0 0 1.575.378c.718 0 1.306-.142 1.766-.425a2.484 2.484 0 0 0 1.012-1.23h3.163a5.694 5.694 0 0 1-1.138 2.11 5.953 5.953 0 0 1-2.041 1.553c-.819.387-1.72.581-2.702.581-1.205 0-2.296-.292-3.27-.875a6.222 6.222 0 0 1-2.288-2.372c-.551-1-.826-2.093-.826-3.284 0-1.191.275-2.285.826-3.284a6.2 6.2 0 0 1 2.288-2.373c.974-.583 2.065-.875 3.27-.875 1.206 0 2.28.288 3.222.863a6.038 6.038 0 0 1 2.197 2.308c.524.962.785 2.01.785 3.146.002.268-.018.595-.059.979Zm-2.897-2.241a2.365 2.365 0 0 0-.516-1.265 3.229 3.229 0 0 0-1.18-.924 3.612 3.612 0 0 0-1.564-.342c-.774 0-1.467.214-2.078.642-.611.428-1.033 1.056-1.265 1.887h6.603v.002ZM103.009 0v4.039l.06 1.282a4.53 4.53 0 0 0-.947-1.162 4.883 4.883 0 0 0-1.424-.881 4.616 4.616 0 0 0-1.785-.342c-1.166 0-2.204.292-3.114.874a5.934 5.934 0 0 0-2.12 2.367c-.505.994-.756 2.092-.756 3.29 0 1.199.254 2.297.761 3.296a5.941 5.941 0 0 0 2.12 2.367c.907.58 1.93.868 3.072.868.967 0 1.819-.231 2.558-.694.738-.463 1.307-1.047 1.708-1.75v2.074h2.756V0h-2.889Zm-.462 11.422a3.665 3.665 0 0 1-1.317 1.397 3.442 3.442 0 0 1-1.827.508 3.492 3.492 0 0 1-3.161-1.899 4.116 4.116 0 0 1-.468-1.96c0-.735.16-1.393.48-1.977a3.572 3.572 0 0 1 1.305-1.373 3.51 3.51 0 0 1 1.845-.498c.672 0 1.285.17 1.84.51.555.34.992.804 1.311 1.391.319.587.479 1.236.479 1.948a4.033 4.033 0 0 1-.487 1.953Zm-99.39 3.703a6.288 6.288 0 0 1-2.32-2.368C.28 11.763 0 10.666 0 9.467c0-1.19.28-2.285.838-3.284A6.269 6.269 0 0 1 3.157 3.81c.986-.584 2.094-.874 3.324-.874 1.239 0 2.352.292 3.343.874a6.251 6.251 0 0 1 2.324 2.373c.56 1 .84 2.095.84 3.284 0 1.199-.28 2.297-.84 3.296a6.187 6.187 0 0 1-2.33 2.367c-.994.58-2.11.869-3.349.869-1.222.001-2.326-.291-3.312-.874Zm5.187-2.314a3.475 3.475 0 0 0 1.294-1.366c.316-.583.473-1.242.473-1.978 0-.726-.157-1.385-.473-1.972-.315-.587-.749-1.047-1.3-1.378s-1.166-.498-1.845-.498-1.293.166-1.845.498a3.515 3.515 0 0 0-1.3 1.378c-.317.587-.474 1.246-.474 1.972 0 .736.157 1.395.473 1.978.315.584.747 1.04 1.295 1.366a3.529 3.529 0 0 0 1.851.492c.687 0 1.304-.163 1.851-.492Zm9.405 2.314a6.22 6.22 0 0 1-2.282-2.373c-.55-.998-.826-2.092-.826-3.283 0-1.182.275-2.273.826-3.274a6.28 6.28 0 0 1 2.282-2.378c.971-.588 2.056-.881 3.254-.881 1.03 0 1.969.201 2.816.605a5.909 5.909 0 0 1 2.12 1.678 6.426 6.426 0 0 1 1.198 2.44h-2.96c-.27-.663-.685-1.167-1.24-1.51-.555-.344-1.196-.517-1.922-.517-.607 0-1.178.155-1.714.462-.535.307-.966.754-1.293 1.336-.328.583-.492 1.262-.492 2.037 0 .784.164 1.465.492 2.045a3.5 3.5 0 0 0 1.293 1.336 3.352 3.352 0 0 0 1.714.467c.735 0 1.382-.181 1.94-.544.558-.364.967-.913 1.222-1.648h2.948a6.512 6.512 0 0 1-1.167 2.534 5.78 5.78 0 0 1-2.127 1.727c-.854.412-1.797.617-2.827.617-1.2-.001-2.284-.293-3.255-.876Zm17.164-1.906c-1.19 0-1.785-.716-1.785-2.146V5.799h2.552V3.305h-2.552V0h-2.9v3.305h-2.55v2.494h2.55v5.142c0 1.822.388 3.058 1.162 3.71.775.651 1.749.978 2.924.978h2.505v-2.41h-1.906Zm6.2 1.906a6.284 6.284 0 0 1-2.319-2.367c-.56-.994-.838-2.09-.838-3.29 0-1.19.28-2.284.838-3.283a6.268 6.268 0 0 1 2.319-2.373c.986-.584 2.095-.875 3.324-.875 1.24 0 2.352.292 3.343.875a6.251 6.251 0 0 1 2.325 2.373c.56.999.84 2.094.84 3.284 0 1.198-.28 2.297-.84 3.296a6.187 6.187 0 0 1-2.331 2.366c-.994.58-2.11.869-3.349.869-1.222 0-2.326-.292-3.312-.875Zm5.188-2.314a3.475 3.475 0 0 0 1.293-1.366c.316-.583.473-1.242.473-1.978 0-.726-.157-1.385-.473-1.972a3.51 3.51 0 0 0-1.3-1.378 3.51 3.51 0 0 0-1.844-.498c-.68 0-1.294.166-1.846.498s-.984.791-1.3 1.378c-.317.587-.474 1.246-.474 1.972 0 .736.157 1.395.474 1.978.314.584.747 1.04 1.294 1.366a3.528 3.528 0 0 0 1.851.492c.687 0 1.304-.163 1.852-.492Z"/></symbol><symbol id="burger" viewBox="0 0 28 28"><path d="M2.5 11.667a1 1 0 0 1 1-1h16.333a1 1 0 1 1 0 2H3.5a1 1 0 0 1-1-1ZM2.5 7a1 1 0 0 1 1-1h21a1 1 0 1 1 0 2h-21a1 1 0 0 1-1-1Zm0 9.333a1 1 0 0 1 1-1h21a1 1 0 1 1 0 2h-21a1 1 0 0 1-1-1ZM2.5 21a1 1 0 0 1 1-1h16.333a1 1 0 1 1 0 2H3.5a1 1 0 0 1-1-1Z"/></symbol><symbol id="lock" viewBox="0 0 28 28"><path d="M7.167 9.333a6.833 6.833 0 0 1 13.666 0v2.524c.157.007.306.016.447.027.646.053 1.224.165 1.763.44a4.5 4.5 0 0 1 1.966 1.966c.275.54.387 1.118.44 1.763.051.625.051 1.394.051 2.338v.551c0 .944 0 1.714-.051 2.338-.053.646-.165 1.224-.44 1.763a4.5 4.5 0 0 1-1.966 1.966c-.539.275-1.117.387-1.763.44-.624.051-1.394.051-2.338.051H9.058c-.944 0-1.714 0-2.338-.051-.646-.053-1.224-.165-1.763-.44a4.5 4.5 0 0 1-1.967-1.966c-.274-.539-.386-1.117-.439-1.763-.051-.624-.051-1.393-.051-2.338v-.55c0-.945 0-1.714.051-2.339.053-.645.165-1.224.44-1.763a4.5 4.5 0 0 1 1.966-1.966c.539-.275 1.117-.387 1.763-.44.141-.011.29-.02.447-.027V9.333Zm2 2.5h9.666v-2.5a4.833 4.833 0 1 0-9.666 0v2.5Zm-2.284 2.045c-.522.042-.808.12-1.018.228a2.5 2.5 0 0 0-1.093 1.092c-.106.21-.185.496-.228 1.018-.043.533-.044 1.22-.044 2.217v.467c0 .997 0 1.684.044 2.217.043.522.122.808.228 1.018a2.5 2.5 0 0 0 1.093 1.092c.21.107.496.186 1.018.229.533.043 1.22.044 2.217.044h9.8c.997 0 1.684 0 2.217-.044.522-.043.808-.122 1.018-.229a2.5 2.5 0 0 0 1.092-1.092c.107-.21.186-.496.229-1.018.043-.533.044-1.22.044-2.217v-.467c0-.996 0-1.684-.044-2.217-.043-.522-.122-.808-.229-1.018a2.5 2.5 0 0 0-1.092-1.092c-.21-.107-.496-.186-1.018-.228-.533-.044-1.22-.045-2.217-.045H9.1c-.997 0-1.684.001-2.217.045Z"/></symbol><symbol id="mail" viewBox="0 0 28 28"><path d="M7.891 3.667H20.11c.944 0 1.713 0 2.338.05.645.053 1.224.166 1.763.44a4.5 4.5 0 0 1 1.966 1.967c.268.525.381 1.088.436 1.715a1 1 0 0 1 .033.536c.022.525.022 1.138.022 1.85v7.55c0 .945 0 1.714-.051 2.339-.053.645-.165 1.223-.44 1.762a4.5 4.5 0 0 1-1.966 1.967c-.54.274-1.118.387-1.763.44-.625.05-1.394.05-2.338.05H7.89c-.944 0-1.713 0-2.338-.05-.645-.053-1.224-.166-1.763-.44a4.5 4.5 0 0 1-1.966-1.967c-.275-.539-.387-1.117-.44-1.762-.05-.625-.05-1.394-.05-2.338v-7.551c0-.712 0-1.325.021-1.85a1 1 0 0 1 .033-.536c.055-.627.168-1.19.436-1.715A4.5 4.5 0 0 1 3.79 4.157c.54-.274 1.118-.387 1.763-.44.625-.05 1.394-.05 2.338-.05Zm-4.558 6.42v7.646c0 .618 0 1.116.011 1.533l5.72-5.167-5.73-4.012Zm7.89 3.081L3.415 7.704c.045-.313.11-.514.19-.672a2.5 2.5 0 0 1 1.092-1.093c.21-.107.496-.185 1.018-.228.533-.044 1.22-.044 2.217-.044h12.134c.996 0 1.684 0 2.217.044.522.043.808.121 1.018.228a2.5 2.5 0 0 1 1.092 1.093c.08.158.145.359.19.672l-7.806 5.464a.884.884 0 0 0-.035.024l-1.175.823c-.84.588-1.05.715-1.245.764a1.333 1.333 0 0 1-.646 0c-.196-.049-.405-.176-1.245-.764l-1.175-.823a.877.877 0 0 0-.035-.024Zm-.477 2.108-6.827 6.166a2.5 2.5 0 0 0 .78.619c.21.107.495.185 1.017.228.533.044 1.22.044 2.217.044h12.134c.996 0 1.684 0 2.217-.044.522-.043.808-.121 1.018-.228a2.5 2.5 0 0 0 .779-.62l-6.827-6.165-.54.378-.125.088c-.646.453-1.179.827-1.783.977a3.332 3.332 0 0 1-1.612 0c-.604-.15-1.137-.524-1.783-.977l-.125-.088-.54-.378Zm8.19-1.177 5.72 5.167c.01-.417.01-.915.01-1.533v-7.646l-5.73 4.012Z"/></symbol><symbol id="trash" viewBox="0 0 28 28"><path d="M8.32 3.95h5.35c.54 0 .97-.44.97-.97S14.21 2 13.68 2H8.32c-.53 0-.97.44-.97.97s.44.98.97.98Zm10.71.73H2.97a.97.97 0 0 0 0 1.94h.87l.57 8.51c.04.67.08 1.23.15 1.69.07.48.18.92.42 1.34.36.64.92 1.16 1.58 1.48.43.21.88.29 1.36.33.46.03 1.02.03 1.7.03h2.77c.67 0 1.23 0 1.7-.04.48-.04.93-.12 1.36-.33.66-.32 1.21-.84 1.58-1.48.24-.41.35-.86.42-1.34.07-.46.1-1.02.15-1.69l.57-8.51h.87c.54 0 .97-.44.97-.97s-.45-.96-.98-.96Zm-3.38 10.29c-.05.72-.08 1.2-.14 1.57-.05.36-.12.54-.18.65-.17.3-.43.54-.74.69-.12.06-.3.11-.67.14-.37.03-.86.03-1.58.03H9.65c-.72 0-1.2 0-1.58-.03-.36-.03-.54-.08-.67-.14-.31-.15-.57-.39-.74-.69-.07-.12-.13-.29-.18-.65-.05-.37-.09-.85-.14-1.57L5.8 6.62h10.4l-.55 8.35Z"/><path d="M9.22 15.09c.54 0 .97-.44.97-.97V9.66a.97.97 0 0 0-.97-.97.98.98 0 0 0-.98.97v4.46c0 .54.44.97.98.97Zm3.56 0c.54 0 .97-.44.97-.97V9.66a.97.97 0 0 0-1.94 0v4.46c0 .54.44.97.97.97Z"/></symbol><symbol id="user" viewBox="0 0 19 19"><path d="M3.167 17.417a6.334 6.334 0 0 1 12.666 0H3.167ZM9.5 10.292a4.749 4.749 0 0 1-4.75-4.75A4.749 4.749 0 0 1 9.5.792a4.749 4.749 0 0 1 4.75 4.75 4.749 4.749 0 0 1-4.75 4.75Z"/></symbol><symbol id="user-arrow" viewBox="0 0 23 26"><path d="M4.792 9.75h13.417l-6.031 6.817a.906.906 0 0 1-.678.318.906.906 0 0 1-.677-.318L4.792 9.75Z"/></symbol><symbol id="login-arrow" viewBox="0 0 20 20"><path d="M10.96 4.293a1 1 0 0 1 1.414 0l5 5a1 1 0 0 1 0 1.414l-5 5a1 1 0 0 1-1.415-1.414L14.253 11H3.333a1 1 0 1 1 0-2h10.92L10.96 5.707a1 1 0 0 1 0-1.414Z"/></symbol><symbol id="ua-arrow" viewBox="0 0 22 22"><path d="M10.349 12.284a.916.916 0 0 0 1.301 0l4.199-4.208a.916.916 0 1 1 1.301 1.292l-4.207 4.208a2.75 2.75 0 0 1-3.887 0L4.85 9.368a.917.917 0 0 1 1.3-1.292l4.199 4.207Z"/></symbol><symbol id="book" viewBox="0 0 32 30"><path d="M31.23 11.23a14.908 14.908 0 0 0-2.14-.938V28.8a14.236 14.236 0 0 0-5.09-.954c-2.764 0-5.498.83-8 2.43V11.663c-2.356-1.431-5.076-2.277-8-2.277-2.604 0-5.062.677-7.23 1.846-.48.246-.77.784-.77 1.354V31.17c0 .893.684 1.523 1.455 1.523.232 0 .465-.061.698-.184 1.76-.97 3.738-1.585 5.847-1.585 3.01 0 5.79 1.262 8 3.077 2.21-1.815 4.99-3.077 8-3.077 2.11 0 4.087.616 5.847 1.6.233.123.466.185.698.185.757 0 1.455-.631 1.455-1.523v-18.6c0-.57-.29-1.108-.77-1.354ZM13.09 28.8A14.236 14.236 0 0 0 8 27.846c-1.73 0-3.433.323-5.09.954V13.554A12.343 12.343 0 0 1 8 12.46c1.745 0 3.476.385 5.09 1.108V28.8ZM26.183 4l-7.273 7.692v14.616l7.273-6.923V4Z"/></symbol><symbol id="cart" viewBox="0 0 20 20"><path d="M15.833 5.833h-2.5V5a3.333 3.333 0 1 0-6.666 0v.833h-2.5a.833.833 0 0 0-.834.834v9.166a2.5 2.5 0 0 0 2.5 2.5h8.334a2.5 2.5 0 0 0 2.5-2.5V6.667a.833.833 0 0 0-.834-.834ZM8.333 5a1.667 1.667 0 1 1 3.334 0v.833H8.333V5ZM15 15.833a.833.833 0 0 1-.833.834H5.833A.833.833 0 0 1 5 15.833V7.5h1.667v.833a.833.833 0 1 0 1.666 0V7.5h3.334v.833a.833.833 0 1 0 1.666 0V7.5H15v8.333Z"/></symbol><symbol id="icon-Bookshelf" viewBox="0 0 178 32"><path d="M22.176 8.533c0-4.731-3.497-7.406-9.545-7.406H0v29.417h13.33c6.089 0 9.998-2.921 9.998-8.599 0-4.402-2.633-6.665-5.719-7.2v-.082c2.427-.823 4.567-2.51 4.567-6.13zm-17.28 4.772V5.282h7.858c2.921 0 4.526 1.44 4.526 4.032s-1.317 3.991-4.814 3.991h-7.57zm0 3.662h8.599c3.086 0 4.937 1.687 4.937 4.69 0 2.757-1.275 4.731-5.472 4.731H4.896v-9.422zM35.89 31.161c-6.583 0-10.574-4.567-10.574-11.109S29.307 8.943 35.89 8.943s10.574 4.567 10.574 11.109-3.991 11.109-10.574 11.109zm0-3.538c4.114 0 6.254-3.25 6.254-7.57 0-4.361-2.139-7.57-6.254-7.57s-6.254 3.209-6.254 7.57c0 4.32 2.139 7.57 6.254 7.57zm23.022 3.538c-6.583 0-10.574-4.567-10.574-11.109S52.329 8.943 58.912 8.943s10.574 4.567 10.574 11.109-3.991 11.109-10.574 11.109zm0-3.538c4.114 0 6.254-3.25 6.254-7.57 0-4.361-2.139-7.57-6.254-7.57s-6.254 3.209-6.254 7.57c0 4.32 2.139 7.57 6.254 7.57zm13.56-26.496v29.417h4.32v-7.611l2.921-2.757 6.624 10.368h5.184l-8.846-13.207 7.982-7.817H85.35l-8.558 8.434V1.127h-4.32zm29.463 16.704c-3.045-.699-5.39-.864-5.39-3.003 0-1.481 1.399-2.469 3.991-2.469 3.374 0 4.197 1.687 4.485 3.333h4.197c-.288-3.662-3.003-6.747-8.722-6.747-5.266 0-8.311 2.757-8.311 6.213 0 4.773 4.526 5.431 7.858 6.213 3.086.741 5.595.946 5.595 3.579 0 1.317-1.275 2.798-4.279 2.798-4.443 0-5.431-1.934-5.637-4.197h-4.197c.206 4.443 3.127 7.611 9.915 7.611 5.102 0 8.558-2.51 8.558-6.542 0-5.019-4.197-5.883-8.064-6.789zm22.188-8.887c-3.538 0-5.719 1.646-6.83 3.291h-.082V1.126h-4.32v29.417h4.32V17.748c0-3.127 2.263-5.143 5.431-5.143 3.003 0 4.197 1.81 4.197 4.649v13.289h4.361V16.02c0-4.814-3.086-7.077-7.077-7.077zm20.325 18.679c-3.826 0-6.089-2.921-6.089-6.459h16.128c0-7.488-3.333-12.219-10.121-12.219-6.336 0-10.327 4.279-10.327 11.109 0 6.583 3.991 11.109 10.533 11.109 5.39 0 8.517-3.045 9.586-7.035h-4.32c-.37 1.275-1.81 3.497-5.39 3.497zm-.082-15.264c3.497 0 5.801 2.345 5.801 5.595h-11.808c0-3.25 2.51-5.595 6.007-5.595zm13.165-11.232v29.417h4.361V1.127h-4.361zm18.472 3.538V1.127a15.12 15.12 0 0 0-2.88-.288c-3.456 0-5.349 1.563-5.349 6.007V9.52h-3.003v3.538h3.003v17.486h4.361V13.058h3.867V9.52h-3.867V7.216c0-2.386 1.07-2.674 3.867-2.551z"/></symbol><symbol id="icon-arrow" viewBox="0 0 32 32"><path d="M17.867 15.053a1.334 1.334 0 0 1 0 1.894l-6.12 6.107a1.334 1.334 0 1 0 1.88 1.894l6.12-6.12a4.001 4.001 0 0 0 0-5.654l-6.12-6.12a1.337 1.337 0 0 0-2.172.434 1.331 1.331 0 0 0 .292 1.46l6.12 6.107z"/></symbol><symbol id="icon-arrow-ff" viewBox="0 0 32 32"><path d="M22.283 15.052a1.334 1.334 0 0 1 0 1.894l-6.12 6.107a1.334 1.334 0 1 0 1.88 1.894l6.12-6.12a4.001 4.001 0 0 0 0-5.654l-6.12-6.12a1.336 1.336 0 0 0-1.88 1.894l6.12 6.107z"/><path d="M12.95 15.052a1.334 1.334 0 0 1 0 1.894l-6.12 6.107a1.334 1.334 0 1 0 1.88 1.894l6.12-6.12a4.001 4.001 0 0 0 0-5.654l-6.12-6.12a1.337 1.337 0 0 0-2.172.434 1.331 1.331 0 0 0 .292 1.46l6.12 6.107z"/></symbol><symbol id="ua" viewBox="0 0 20 32"><path d="M9.005 30.888a8.64 8.64 0 0 1-3.414-5.351H0V2.42c2.991 1.443 5.153 4.6 5.388 7.876l.845 6.493-.407-.045c-.893 0-1.676.812-1.676 1.608 0 .752.595 1.383 1.379 1.548l1.018.226c1.675-3.051 2.63-6.042 2.63-8.973 0-2.646-.36-5.291-.422-7.997 0-1.202.485-2.3 1.253-3.156.783.857 1.253 1.954 1.253 3.156 0 2.706-.423 5.351-.423 7.997 0 2.93.955 5.922 2.631 8.973l1.018-.226c.783-.165 1.378-.811 1.378-1.548 0-.811-.783-1.608-1.675-1.608l-.423.06.845-6.493C15.035 7.034 17.01 3.863 20 2.435v23.117h-5.576c-.422 2.18-1.613 4.148-3.414 5.35-.423.286-.783.632-1.018 1.098-.22-.466-.58-.812-.987-1.112ZM2.647 17.556c.235-.857.893-1.609 1.738-2.075l-.658-5.35a8.286 8.286 0 0 0-2.036-4.374V17.54h.956v.015Zm2.819 6.373c0-.812.125-1.548.298-2.3l-.784-.18c-1.143-.346-2.036-1.203-2.333-2.3H1.69v4.78h3.775Zm3.712 0c0-.977-.783-1.834-1.801-1.954-.173.63-.298 1.262-.298 1.954h2.099Zm0 1.623H7.314c.298 1.262.955 2.42 1.864 3.397v-3.397Zm2.63-5.005c-.72-1.263-1.377-2.585-1.8-3.968-.423 1.383-1.08 2.705-1.801 3.968.72.165 1.315.631 1.8 1.157.486-.526 1.082-.992 1.802-1.157Zm1.144 3.382c0-.692-.125-1.323-.297-1.954-1.018.12-1.801.977-1.801 1.954h2.098Zm-.235 1.623h-1.863v3.397c.908-.992 1.566-2.135 1.863-3.397Zm5.623-1.623v-4.78h-.956c-.297 1.097-1.206 1.954-2.333 2.3l-.783.18c.172.752.297 1.488.297 2.3h3.775Zm0-6.373v-11.8c-1.08 1.203-1.864 2.706-2.036 4.375l-.658 5.35c.846.466 1.504 1.203 1.738 2.075h.956Z"/></symbol><symbol id="amazon" viewBox="0 0 48 15"><path fill="#A7A7A7" d="M29.772 11.718c-2.786 2.127-6.824 3.261-10.301 3.261-4.875 0-9.264-1.867-12.584-4.972-.261-.244-.028-.577.286-.387 3.583 2.159 8.013 3.458 12.59 3.458 3.086 0 6.482-.662 9.604-2.034.471-.207.866.32.405.674Z"/><path fill="#A7A7A7" d="M30.93 10.346c-.355-.47-2.354-.222-3.252-.112-.273.035-.315-.212-.068-.389 1.592-1.16 4.205-.825 4.51-.436.304.39-.08 3.102-1.576 4.397-.23.199-.449.093-.347-.171.336-.869 1.09-2.815.733-3.289Z"/><path d="M27.741 1.654V.526c0-.17.125-.285.276-.285h4.877c.156 0 .281.116.281.285v.966c-.002.162-.133.374-.367.708l-2.527 3.736c.939-.023 1.93.121 2.782.618.192.113.244.277.258.439v1.204c0 .164-.175.356-.358.257-1.501-.815-3.494-.904-5.153.008-.17.095-.346-.095-.346-.259V7.06c0-.184.002-.497.179-.776l2.928-4.347h-2.548a.274.274 0 0 1-.282-.283ZM9.95 8.691H8.466a.285.285 0 0 1-.265-.261V.545c0-.157.128-.283.286-.283h1.384a.284.284 0 0 1 .269.264v1.03h.027c.361-.995 1.04-1.46 1.954-1.46.928 0 1.508.465 1.926 1.46.359-.995 1.175-1.46 2.05-1.46.621 0 1.301.266 1.717.862.47.663.373 1.627.373 2.472l-.002 4.976a.285.285 0 0 1-.286.285h-1.482a.288.288 0 0 1-.267-.285V4.227c0-.332.03-1.162-.041-1.478-.111-.53-.443-.678-.873-.678-.359 0-.734.248-.887.646-.152.397-.137 1.063-.137 1.51v4.18a.285.285 0 0 1-.286.284h-1.482a.286.286 0 0 1-.267-.285l-.002-4.179c0-.88.14-2.173-.914-2.173-1.067 0-1.025 1.261-1.025 2.173v4.18a.285.285 0 0 1-.286.284ZM37.374.096c2.202 0 3.393 1.958 3.393 4.447 0 2.405-1.316 4.313-3.393 4.313-2.162 0-3.339-1.958-3.339-4.398 0-2.454 1.192-4.362 3.34-4.362Zm.013 1.61c-1.094 0-1.163 1.542-1.163 2.504 0 .964-.014 3.02 1.15 3.02 1.15 0 1.204-1.659 1.204-2.67 0-.665-.027-1.46-.22-2.092-.168-.548-.5-.762-.971-.762Zm6.236 6.985h-1.478a.288.288 0 0 1-.267-.285L41.876.52a.284.284 0 0 1 .286-.257h1.375c.13.007.236.098.265.22v1.206h.027C44.244.61 44.827.096 45.851.096c.666 0 1.315.248 1.732.93.389.63.389 1.69.389 2.454v4.963a.288.288 0 0 1-.286.248h-1.488a.285.285 0 0 1-.263-.248V4.16c0-.862.096-2.124-.929-2.124-.36 0-.693.25-.858.631-.208.482-.235.962-.235 1.493v4.246a.29.29 0 0 1-.29.285Zm-19.77-3.766v-.333c-1.073 0-2.206.238-2.206 1.547 0 .664.332 1.113.902 1.113.417 0 .79-.266 1.027-.698.292-.531.277-1.03.277-1.629ZM25.35 8.67a.301.301 0 0 1-.35.036c-.493-.423-.58-.62-.852-1.024-.813.86-1.39 1.117-2.445 1.117-1.248 0-2.22-.797-2.22-2.394 0-1.247.652-2.096 1.581-2.51.806-.368 1.93-.433 2.79-.534v-.199c0-.365.027-.797-.18-1.113-.18-.283-.527-.4-.832-.4-.566 0-1.07.3-1.194.923-.025.138-.123.274-.256.281l-1.44-.16c-.121-.028-.255-.13-.222-.322.332-1.806 1.908-2.35 3.319-2.35.722 0 1.665.198 2.235.764.722.698.653 1.63.653 2.643v2.394c0 .72.288 1.035.56 1.424.095.138.116.304-.005.408-.303.262-.841.748-1.137 1.02l-.005-.004ZM4.401 4.925v-.333c-1.073 0-2.206.238-2.206 1.547 0 .664.332 1.113.902 1.113.417 0 .79-.266 1.026-.698.293-.531.278-1.03.278-1.629ZM5.897 8.67a.301.301 0 0 1-.35.036c-.493-.423-.58-.62-.852-1.024-.814.86-1.39 1.117-2.446 1.117C1.001 8.8.03 8.002.03 6.405c0-1.247.653-2.096 1.582-2.51.805-.368 1.93-.433 2.79-.534v-.199c0-.365.027-.797-.18-1.113-.181-.283-.527-.4-.832-.4-.566 0-1.07.3-1.194.923-.025.138-.123.274-.257.281l-1.44-.16c-.12-.028-.254-.13-.22-.322C.608.565 2.184.021 3.594.021c.723 0 1.666.198 2.236.764.722.698.653 1.63.653 2.643v2.394c0 .72.288 1.035.559 1.424.096.138.117.304-.004.408-.303.262-.841.748-1.137 1.02l-.005-.004Z"/></symbol><symbol id="applebook" viewBox="0 0 28 28"><path fill="#A7A7A7" d="M26.53 9.31V7.69a10.311 10.311 0 0 0-.13-1.66 6.697 6.697 0 0 0-.51-1.57 4.33 4.33 0 0 0-1-1.34 8.747 8.747 0 0 0-1.34-1 4.74 4.74 0 0 0-1.57-.51 10.33 10.33 0 0 0-1.66-.14H7.69a10.33 10.33 0 0 0-1.66.14 6.27 6.27 0 0 0-1.57.51 4.33 4.33 0 0 0-1.34 1 5.91 5.91 0 0 0-1 1.34A4.74 4.74 0 0 0 1.64 6a10.33 10.33 0 0 0-.11 1.69v12.63A10.43 10.43 0 0 0 1.64 22c.1.544.272 1.071.51 1.57a4.58 4.58 0 0 0 1 1.34c.383.41.837.75 1.34 1a5.252 5.252 0 0 0 1.57.51c.549.088 1.104.131 1.66.13h12.59c.556.001 1.111-.042 1.66-.13a6.425 6.425 0 0 0 1.57-.51 4.33 4.33 0 0 0 1.34-1c.393-.4.729-.85 1-1.34a5.001 5.001 0 0 0 .5-1.57c.09-.549.138-1.104.14-1.66v-11l.01-.03Z"/><path fill="#fff" d="M13.05 8.52c.42.65.65.84.65 2.64v10.12a4.11 4.11 0 0 0-1.43-2.08 5.16 5.16 0 0 0-6.1.28c-.37.27-.65.23-.65-.19V9.45a1.49 1.49 0 0 1 .65-1.34c2.07-1.44 5.26-1.48 6.88.41Zm9.43 1a1.49 1.49 0 0 0-.65-1.34c-2.08-1.53-5.27-1.53-6.89.36-.41.65-.64.84-.64 2.64v10.1a4.11 4.11 0 0 1 1.43-2.08 5.16 5.16 0 0 1 6.1.28c.37.27.65.23.65-.19V9.52Z"/></symbol><symbol id="bookshop" viewBox="0 0 28 28"><path fill="#fff" d="M3.51 13.73c.23 0 .32-.28.33-.48a1.23 1.23 0 0 0-.38-1 .41.41 0 0 0 .32-.46 1.18 1.18 0 0 0-.65-1.13c-.46-.25-.94-.47-1.4-.72 0 .23-.13.56.17.66 0 .63-.06 1.25-.08 1.88l-.2-.1v.54l1.09.56c.242.148.517.233.8.25Zm-.92-2.82c.14.1.33.15.4.32a1 1 0 0 1 0 .51 1.884 1.884 0 0 1-.42-.14c0-.23.01-.46.02-.69Zm0 1.13c.18.11.41.19.49.4.08.21.1.48-.13.55a2.883 2.883 0 0 1-.4-.18c-.03-.25-.01-.51 0-.77h.04Zm3.02 2.94a.63.63 0 0 0 .66-.18 1.66 1.66 0 0 0 .27-1 2.27 2.27 0 0 0-.84-1.88 1.25 1.25 0 0 0-1-.3.91.91 0 0 0-.57.77 2.61 2.61 0 0 0 .42 1.9 2.09 2.09 0 0 0 1.06.69Zm-.44-2.61c.12-.13.3 0 .36.14.17.376.222.794.15 1.2 0 .19-.07.46-.29.51-.33-.11-.39-.52-.42-.82a1.48 1.48 0 0 1 .2-1.03Zm3.14 3.97a.61.61 0 0 0 .71-.27 2 2 0 0 0 .19-1.24 2.12 2.12 0 0 0-.88-1.61 1 1 0 0 0-1.05-.21 1.06 1.06 0 0 0-.44.77 2.67 2.67 0 0 0 .27 1.6 2.001 2.001 0 0 0 1.2.96Zm-.66-1.89c0-.26 0-.59.26-.76a.38.38 0 0 1 .36.27c.106.301.143.622.11.94a.84.84 0 0 1-.3.72c-.41-.23-.44-.75-.43-1.17Zm2.91 2.45-.19-.1v-.47l.27-.14c.11.32.23.63.35.95l-.24-.14v.54l1.37.67v-.52c0-.17-.22-.15-.25-.28-.19-.52-.39-1-.58-1.55.24-.09.46-.37.72-.22v-.51l-1.12-.57v.53l.25.14-.68.39v-.73l.18.12v-.56l-1-.54c0 .23-.14.55.15.66 0 .62 0 1.25-.08 1.88l-.17-.1v.54l1.07.54c-.06-.17-.05-.35-.05-.53Zm15.49-.4a7.01 7.01 0 0 0-1.23.54c-.12.07-.27.1-.35.21-.01.183-.01.367 0 .55l.2-.09v2l-.19.09v.6l1.13-.56v-.6l-.21.13v-.74a2.23 2.23 0 0 0 .93-.7 1.439 1.439 0 0 0 .22-1.19.37.37 0 0 0-.5-.24Zm-.69 1.69v-.84c.15-.05.31-.19.46-.07a.7.7 0 0 1-.46.93v-.02Zm-2.24-.4a2 2 0 0 0-1.06.87 2.93 2.93 0 0 0-.39 2.06.79.79 0 0 0 .5.68 1.382 1.382 0 0 0 1-.34 2.64 2.64 0 0 0 .9-2.13 1.56 1.56 0 0 0-.29-1 .67.67 0 0 0-.66-.14Zm-.35 2.83a.57.57 0 0 1-.24-.31 2.56 2.56 0 0 1 .1-1.45c.06-.17.28-.4.45-.23a1.6 1.6 0 0 1 .14.89c.02.4-.02.89-.41 1.1h-.04Zm-2.55-.72.22-.12v.73l-.67.33v-.72l.2-.09v-.61l-1.12.55c-.01.203-.01.407 0 .61l.2-.11v2l-.19.08v.6l1.12-.55V22l-.22.11v-.71l.67-.33v.7l-.2.1v.6l1.12-.55v-.61l-.21.12v-2l.2-.1v-.6c-.37.2-.74.38-1.12.56.01.21 0 .41 0 .61Zm-2.04 2.01c-.31-.12-.65 0-1-.06s0-.57.3-.58c.3-.01.27.2.32.35l.59-.29v-1.15l-.59.29v.39a.5.5 0 0 0-.46-.19 1.57 1.57 0 0 0-1.08 1.17c-.06.31-.09.73.21.91.3.18.69 0 1 0 .17.26-.21.53-.46.53s-.22-.17-.27-.28c-.2.11-.4.2-.6.3v1.15l.6-.29v-.36a.63.63 0 0 0 .59.11 1.64 1.64 0 0 0 1.07-1.6.47.47 0 0 0-.22-.4Zm-4.3-1.38c-4.27-2.15-8.56-4.26-12.83-6.4l.19.93 12.54 6.4v.6l-12.54-6.4v.68c4.18 2.147 8.36 4.283 12.54 6.41v.6L1.23 16.94v.66L13.77 24v.6L1.24 18.21v.57l12.54 6.43v.59L1.24 19.4l-.29.7c.11-.09.24 0 .34 0l12.84 6.4a6 6 0 0 0 .62-3.91 3.55 3.55 0 0 0-.87-2.06Zm-.04-.52.18.25 3.41-1.69 9.5-4.73-.13-.78-12.68 6.33v-.59l12.69-6.32v.58-2.68a.23.23 0 0 1-.15.18l-12.54 6.26v-.61l12.71-6.32a.638.638 0 0 0 0 .24v-.92l-12.71 6.33v-.6l12.71-6.32.12-.9-12.83 6.36c-.294.25-.51.58-.62.95a6.78 6.78 0 0 0-.24 3.49 4 4 0 0 0 .58 1.49Zm13-8.82v.59l-12.72 6.33v-.6l12.72-6.32Z"/><path d="m26.93 13.84-9.5 4.73-3.41 1.69-.18-.25a4 4 0 0 1-.55-1.49 6.78 6.78 0 0 1 .24-3.49 2 2 0 0 1 .62-.95l12.77-6.36a.19.19 0 0 0 .12-.21 8.714 8.714 0 0 0-.8-.42c-4.09-2-8.16-4.07-12.25-6.09L1.19 7.37a1.34 1.34 0 0 0-.58.62 6.4 6.4 0 0 0-.56 3.71 3.93 3.93 0 0 0 1 2.43c4.27 2.14 8.56 4.25 12.83 6.4a3.55 3.55 0 0 1 .87 2.05 6 6 0 0 1-.62 3.91l-12.84-6.4c-.1-.05-.23-.12-.34 0a.27.27 0 0 0 0 .47l13 6.47a2195.68 2195.68 0 0 0 12.54-6.24 1.47 1.47 0 0 0 .66-.46 5.67 5.67 0 0 0 .81-3.25 4.76 4.76 0 0 0-1.03-3.24Zm-23.09-.63c0 .2-.1.46-.33.48a1.731 1.731 0 0 1-.82-.27l-1.09-.56v-.54l.2.1c0-.63.06-1.25.08-1.88-.3-.1-.16-.43-.17-.66.46.25.94.47 1.4.72a1.18 1.18 0 0 1 .65 1.13.41.41 0 0 1-.32.46 1.23 1.23 0 0 1 .4 1.02Zm2.43 1.55a.63.63 0 0 1-.66.18 2.09 2.09 0 0 1-1-.72 2.61 2.61 0 0 1-.42-1.9.91.91 0 0 1 .57-.77 1.25 1.25 0 0 1 1 .3 2.27 2.27 0 0 1 .84 1.88c.017.384-.1.762-.33 1.07v-.04Zm2.75 1.27a.61.61 0 0 1-.71.27 2 2 0 0 1-1.2-1 2.67 2.67 0 0 1-.27-1.6 1.06 1.06 0 0 1 .44-.77 1 1 0 0 1 1.05.21 2.12 2.12 0 0 1 .88 1.61 2 2 0 0 1-.19 1.32v-.04Zm3.1 2.18-1.32-.68v-.54l.24.14c-.12-.32-.24-.63-.35-.95l-.27.14v.47l.19.1v.54l-1.07-.54v-.54l.17.1c0-.63.06-1.26.08-1.88-.29-.11-.14-.43-.15-.66l1 .54v.56l-.18-.12v.73l.66-.41-.25-.14v-.53l1.12.57v.51c-.26-.15-.48.13-.72.22.19.52.39 1 .58 1.55 0 .13.15.2.25.28.1.08.02.38.02.54Zm5.33 5.73a.63.63 0 0 1-.59-.11v.36l-.6.29v-1.15c.2-.1.4-.19.6-.3.05.11.09.31.27.28.18-.03.63-.27.46-.53-.34 0-.71.13-1 0-.29-.13-.27-.6-.21-.91a1.57 1.57 0 0 1 1.08-1.17.5.5 0 0 1 .46.19v-.39l.59-.29v1.15l-.59.29c-.05-.15-.11-.39-.32-.35-.21.04-.58.41-.3.58.28.17.66-.06 1 .06a.47.47 0 0 1 .29.44 1.64 1.64 0 0 1-1.19 1.57l.05-.01Zm4-4.61-.2.1v2l.21-.12v.61l-1.12.55v-.6l.2-.1v-.7l-.67.33v.71l.22-.11v.6l-1.12.55v-.6l.19-.08v-2l-.2.11a6.025 6.025 0 0 1 0-.61l1.12-.55v.61l-.2.09v.72l.67-.33v-.73l-.22.12v-.6c.38-.18.75-.36 1.12-.56v.59Zm1.88 1.72a1.382 1.382 0 0 1-1 .34.79.79 0 0 1-.5-.68 2.93 2.93 0 0 1 .39-2.06 2 2 0 0 1 1.06-.87.67.67 0 0 1 .68.11c.208.29.31.643.29 1a2.64 2.64 0 0 1-1.02 2.17l.1-.01Zm3-3.1a2.23 2.23 0 0 1-.93.7v.74l.21-.13v.6l-1.13.56v-.6l.19-.09v-2l-.2.09a4.996 4.996 0 0 1 0-.55c.08-.11.23-.14.35-.21a7.07 7.07 0 0 1 1.23-.54.37.37 0 0 1 .45.27 1.44 1.44 0 0 1-.22 1.17l.05-.01Z"/><path d="M23.12 18.63c-.17-.17-.39.06-.45.23a2.56 2.56 0 0 0-.1 1.45.57.57 0 0 0 .24.31c.39-.21.43-.7.45-1.1a1.6 1.6 0 0 0-.14-.89Zm3.68-9.42v-.58l-12.68 6.31v.6L26.8 9.21Zm0 .94a.641.641 0 0 1 0-.24l-12.68 6.3v.59l12.56-6.26a.23.23 0 0 0 .15-.18 1.772 1.772 0 0 0-.03-.21Zm0 1.06-12.68 6.3v.6l12.71-6.33-.03-.57Zm-24.25.83v.77c.129.07.262.13.4.18.23-.07.2-.37.13-.55-.07-.18-.35-.29-.53-.4Zm2.62.33a1.48 1.48 0 0 0-.2 1c0 .3.09.71.42.82.22-.05.25-.32.29-.51a2.05 2.05 0 0 0-.15-1.2c-.06-.08-.24-.27-.36-.11Zm8.95 7.02 12.71-6.33v-.58L14.12 18.8v.59Zm-6.21-5.7c-.24.17-.24.5-.26.76 0 .42 0 .94.43 1.17a.84.84 0 0 0 .3-.72 2.16 2.16 0 0 0-.11-.94.38.38 0 0 0-.36-.27Zm5.87 7.77-12.54-6.4v.6l12.54 6.4v-.6ZM1.24 16.34v.6l12.55 6.41v-.6c-4.18-2.127-8.36-4.263-12.54-6.41h-.01Zm24.12 1.01v.86a.702.702 0 0 0 .46-.91c-.15-.09-.31 0-.46.05Zm-24.12.25v.61l12.54 6.41v-.6L1.24 17.6Zm0 1.76 12.54 6.4v-.55L1.24 18.8v.56Zm1.75-8.15c-.07-.17-.26-.22-.4-.32v.69c.134.063.275.11.42.14a1 1 0 0 0-.02-.51Z"/><symbol id="logo" viewBox="0 0 126 32"><path fill="#f6f6f6" style="fill:var(--color1,#f6f6f6)" d="m0 2.286 14.008 13.861 13.42 13.567V2.285H-.001z"/><path fill="#f6f6f6" style="fill:var(--color1,#f6f6f6)" d="m3.82 5.91 10.237 10.139 9.649 9.845H3.82V5.91z"/><path fill="#4f2ee8" style="fill:var(--color2,#4f2ee8)" d="M23.771 25.959 13.534 15.82 3.885 5.975h19.886v19.984z"/><path fill="#4f2ee8" style="fill:var(--color2,#4f2ee8)" d="m7.935 10.024 11.657 11.657H7.935V10.024z"/><path fill="#f6f6f6" style="fill:var(--color1,#f6f6f6)" d="m7.935 10.024 11.657 11.657V10.024H7.935z"/><path d="M47.659 12.266c0-2.366-1.749-3.703-4.773-3.703h-6.315v14.709h6.665c3.045 0 4.999-1.461 4.999-4.299 0-2.201-1.317-3.333-2.859-3.6v-.041c1.214-.411 2.283-1.255 2.283-3.065zm-8.64 2.387v-4.011h3.929c1.461 0 2.263.72 2.263 2.016s-.658 1.995-2.407 1.995h-3.785zm0 1.83h4.299c1.543 0 2.469.843 2.469 2.345 0 1.378-.638 2.366-2.736 2.366h-4.032v-4.711zM54.516 23.581c-3.291 0-5.287-2.283-5.287-5.554s1.995-5.554 5.287-5.554c3.291 0 5.287 2.283 5.287 5.554s-1.995 5.554-5.287 5.554zm0-1.77c2.057 0 3.127-1.625 3.127-3.785 0-2.181-1.07-3.785-3.127-3.785s-3.127 1.605-3.127 3.785c0 2.16 1.07 3.785 3.127 3.785zM66.027 23.581c-3.291 0-5.287-2.283-5.287-5.554s1.995-5.554 5.287-5.554c3.291 0 5.287 2.283 5.287 5.554s-1.995 5.554-5.287 5.554zm0-1.77c2.057 0 3.127-1.625 3.127-3.785 0-2.181-1.07-3.785-3.127-3.785S62.9 15.846 62.9 18.026c0 2.16 1.07 3.785 3.127 3.785zM72.807 8.563v14.709h2.16v-3.806l1.461-1.378 3.312 5.184h2.592l-4.423-6.603L81.9 12.76h-2.654l-4.279 4.217V8.563h-2.16zM87.539 16.915c-1.522-.35-2.695-.432-2.695-1.502 0-.741.699-1.234 1.995-1.234 1.687 0 2.098.843 2.242 1.666h2.098c-.144-1.831-1.502-3.374-4.361-3.374-2.633 0-4.155 1.378-4.155 3.106 0 2.386 2.263 2.715 3.929 3.106 1.543.37 2.798.473 2.798 1.79 0 .658-.638 1.399-2.139 1.399-2.222 0-2.715-.967-2.818-2.098h-2.098c.103 2.222 1.563 3.806 4.958 3.806 2.551 0 4.279-1.255 4.279-3.271 0-2.51-2.098-2.942-4.032-3.394zM98.633 12.472c-1.769 0-2.859.823-3.415 1.646h-.041V8.564h-2.16v14.709h2.16v-6.398c0-1.563 1.131-2.571 2.715-2.571 1.502 0 2.098.905 2.098 2.325v6.645h2.181v-7.262c0-2.407-1.543-3.538-3.538-3.538zM108.796 21.811c-1.913 0-3.045-1.461-3.045-3.23h8.064c0-3.744-1.666-6.11-5.061-6.11-3.168 0-5.163 2.139-5.163 5.554 0 3.291 1.995 5.554 5.266 5.554 2.695 0 4.258-1.522 4.793-3.518h-2.16c-.185.638-.905 1.749-2.695 1.749zm-.042-7.632c1.749 0 2.901 1.173 2.901 2.798h-5.904c0-1.625 1.255-2.798 3.003-2.798zM115.337 8.563v14.709h2.181V8.563h-2.181zM124.573 10.333V8.564a7.6 7.6 0 0 0-1.44-.144c-1.728 0-2.674.782-2.674 3.003v1.337h-1.502v1.769h1.502v8.743h2.181v-8.743h1.934V12.76h-1.934v-1.152c0-1.193.535-1.337 1.934-1.275z"/></symbol><symbol id="icon-arrow_down" viewBox="0 0 32 32"><path d="M15.053 17.867a1.334 1.334 0 0 0 1.894 0l6.107-6.12a1.344 1.344 0 0 1 .947-.395 1.331 1.331 0 0 1 .947.395 1.336 1.336 0 0 1 0 1.88l-6.12 6.12a4.001 4.001 0 0 1-5.654 0l-6.12-6.12a1.337 1.337 0 0 1 .434-2.172 1.331 1.331 0 0 1 1.46.292l6.107 6.12z"/></symbol></symbol></defs></svg>