<svg aria-hidden="true" style="width:0;height:0;position:absolute;overflow:hidden" xmlns="http://www.w3.org/2000/svg"><defs><symbol id="gotop" viewBox="0 0 32 32"><path d="M4.5 19.6 15.7 8.367c.133-.133.278-.228.433-.283s.322-.084.5-.084.345.028.5.084.3.149.433.283L28.799 19.6c.311.311.467.7.467 1.167s-.167.867-.5 1.2c-.333.333-.722.5-1.167.5s-.833-.167-1.167-.5l-9.8-9.8-9.8 9.8c-.311.311-.694.467-1.149.467s-.851-.167-1.184-.5-.5-.722-.5-1.167c0-.444.167-.833.5-1.167z"/></symbol><symbol id="gh" viewBox="0 0 24 24"><path d="M12 0C5.373 0 0 5.508 0 12.304c0 5.436 3.438 10.048 8.206 11.675.6.114.82-.267.82-.592 0-.293-.01-1.263-.016-2.29-3.338.743-4.043-1.453-4.043-1.453-.546-1.422-1.332-1.8-1.332-1.8-1.089-.763.082-.748.082-.748 1.205.087 1.84 1.268 1.84 1.268 1.07 1.881 2.807 1.337 3.491 1.023.108-.795.419-1.338.762-1.645-2.665-.311-5.467-1.366-5.467-6.08 0-1.344.469-2.442 1.236-3.303-.124-.31-.535-1.562.117-3.256 0 0 1.007-.331 3.3 1.26A11.23 11.23 0 0 1 12 5.95c1.02.005 2.047.141 3.006.414 2.29-1.592 3.297-1.261 3.297-1.261.653 1.694.242 2.946.118 3.256.769.861 1.235 1.959 1.235 3.302 0 4.726-2.808 5.766-5.48 6.071.43.382.814 1.13.814 2.279 0 1.646-.014 2.97-.014 3.376 0 .327.216.711.825.59C20.566 22.35 24 17.738 24 12.304 24 5.508 18.627 0 12 0Z"/></symbol><symbol id="goit" viewBox="0 0 80 24"><path fill="#FF5C00" d="M79.68 0C68.1.01 56.52.01 44.94 0c-.26 0-.33.06-.33.33.01 7.75.01 15.49.01 23.24v.29H80v-.31c0-7.74 0-15.47.01-23.21C80 .08 79.94 0 79.68 0Zm-22.3 17.3c-.75-.01-1.5 0-2.25-.01-.08 0-.15-.01-.24-.02V6.52c.09-.01.16-.02.24-.02.75 0 1.5.01 2.25-.01.22 0 .27.07.27.28-.01 3.41-.01 6.83 0 10.24 0 .22-.06.29-.27.29Zm12.05-8.19c-.85-.01-1.71 0-2.56-.01-.23 0-.29.07-.29.29.01 2.52 0 5.04.01 7.56 0 .26-.06.34-.33.34-.72-.02-1.45-.01-2.17 0-.22 0-.29-.07-.29-.29.01-2.51.01-5.03.01-7.54 0-.36 0-.36-.37-.36-.83 0-1.65-.01-2.48 0-.24 0-.31-.07-.31-.31.02-.66.02-1.32 0-1.98-.01-.26.07-.34.33-.34 1.4.01 2.81.01 4.21.01h4.11c.43 0 .43 0 .43.41 0 .63-.01 1.27.01 1.9.01.27-.08.32-.31.32Z"/><path d="M43.7 11.88C40.99 8 38.28 4.13 35.58.24c-.1-.15-.22-.19-.38-.19H0V24h35.2c.19 0 .29-.06.4-.21 2.08-2.98 4.17-5.95 6.25-8.92.65-.93 1.31-1.87 1.97-2.81l-.12-.18Zm-25.18 3.67c0 .1-.05.25-.12.31-1.78 1.45-3.79 1.99-6.04 1.46-2.56-.6-4.16-2.75-4.12-5.42.05-3.06 2.42-5.41 5.5-5.46 1.7-.03 3.21.41 4.5 1.62l-1.7 2.06c-.24-.18-.47-.37-.71-.53-.91-.6-1.9-.82-2.92-.42-1.22.48-1.77 1.47-1.83 2.74-.07 1.35.7 2.55 1.93 2.94.92.3 1.82.19 2.68-.24.13-.06.19-.15.18-.3-.01-.29 0-.58 0-.92h-2.25V11h4.91c.01.07.02.14.02.21-.02 1.44-.02 2.89-.03 4.34Zm9.44 1.91c-1.96.22-3.68-.29-5.04-1.75-2.68-2.89-1.56-8.04 2.86-9.11.47-.11.97-.14 1.45-.21 2.7.05 4.88 1.69 5.51 4.2.84 3.27-1.4 6.49-4.78 6.87Z"/><path d="M26.53 9.05c-1.34.32-2.21 1.46-2.21 2.96.01.1.01.23.02.37.01.09.03.19.05.28.25 1.08.87 1.85 1.94 2.17 1.07.32 2.05.12 2.86-.67.77-.76.98-1.7.83-2.74a2.86 2.86 0 0 0-3.49-2.37Z"/></symbol><symbol id="close-btn" viewBox="0 0 32 32"><path d="M5.94 5.94a1.5 1.5 0 0 1 2.12 0L14 11.878l5.94-5.94a1.5 1.5 0 0 1 2.12 2.122L16.122 14l5.94 5.94a1.5 1.5 0 0 1-2.122 2.12L14 16.122l-5.94 5.94a1.5 1.5 0 0 1-2.12-2.122L11.878 14l-5.94-5.94a1.5 1.5 0 0 1 0-2.12Z"/></symbol><symbol id="team-logo" viewBox="0 0 121 16"><path fill="#FF5C00" d="M53.989 6.923c-.27-.162-.48-.38-.631-.653a1.82 1.82 0 0 1-.227-.896c0-.324.074-.622.22-.896.148-.274.358-.492.632-.654a1.81 1.81 0 0 1 .939-.242c.345 0 .653.08.927.242.274.162.486.38.637.654.151.274.227.572.227.896 0 .511-.168.938-.506 1.28-.335.342-.77.511-1.299.511-.343 0-.65-.081-.92-.242Zm0 8.226c-.27-.161-.48-.38-.631-.653a1.825 1.825 0 0 1-.227-.896c0-.324.074-.622.22-.896.148-.274.358-.492.632-.654a1.81 1.81 0 0 1 .939-.242c.345 0 .653.08.927.242.274.162.486.38.637.654.151.274.227.574.227.896 0 .511-.168.938-.506 1.28-.335.342-.77.512-1.299.512-.343 0-.65-.08-.92-.242Zm5.428-8.226c-.27-.162-.48-.38-.63-.653a1.822 1.822 0 0 1-.227-.896c0-.324.074-.622.22-.896.147-.274.357-.492.631-.654a1.81 1.81 0 0 1 .94-.242c.344 0 .653.08.927.242.273.162.485.38.636.654.152.274.227.572.227.896 0 .511-.168.938-.505 1.28-.336.342-.77.511-1.3.511-.343 0-.65-.081-.919-.242Zm0 8.226c-.27-.161-.48-.38-.63-.653a1.826 1.826 0 0 1-.227-.896c0-.324.074-.622.22-.896.147-.274.357-.492.631-.654a1.81 1.81 0 0 1 .94-.242c.344 0 .653.08.927.242.273.162.485.38.636.654.152.274.227.574.227.896 0 .511-.168.938-.505 1.28-.336.342-.77.512-1.3.512-.343 0-.65-.08-.919-.242Z"/><path d="M67.438 15.125a6.242 6.242 0 0 1-2.283-2.373c-.55-.998-.825-2.092-.825-3.283 0-1.182.275-2.273.825-3.272a6.268 6.268 0 0 1 2.283-2.379c.97-.587 2.054-.88 3.252-.88 1.03 0 1.967.2 2.814.605a5.908 5.908 0 0 1 2.12 1.678 6.426 6.426 0 0 1 1.199 2.44h-2.959c-.272-.664-.685-1.167-1.24-1.511-.555-.344-1.196-.516-1.922-.516-.607 0-1.179.154-1.712.462-.536.307-.967.753-1.294 1.336-.326.582-.491 1.262-.491 2.037 0 .784.163 1.463.491 2.043a3.5 3.5 0 0 0 1.294 1.336 3.346 3.346 0 0 0 1.712.467c.735 0 1.38-.181 1.94-.544.56-.364.967-.913 1.222-1.648h2.947a6.512 6.512 0 0 1-1.168 2.534 5.777 5.777 0 0 1-2.127 1.726c-.854.411-1.796.617-2.826.617-1.198 0-2.283-.292-3.252-.875Zm14.002 0a6.269 6.269 0 0 1-2.317-2.367c-.56-.994-.838-2.09-.838-3.29 0-1.19.28-2.284.838-3.283a6.264 6.264 0 0 1 2.317-2.373c.987-.583 2.095-.875 3.325-.875 1.237 0 2.352.292 3.343.875a6.251 6.251 0 0 1 2.324 2.373c.56.999.838 2.093.838 3.284 0 1.198-.28 2.297-.838 3.296a6.205 6.205 0 0 1-2.329 2.366c-.994.58-2.11.869-3.349.869-1.223 0-2.327-.292-3.314-.875Zm5.187-2.314a3.474 3.474 0 0 0 1.293-1.366c.316-.583.473-1.242.473-1.978 0-.726-.157-1.385-.473-1.972a3.532 3.532 0 0 0-1.3-1.378c-.55-.332-1.165-.498-1.845-.498s-1.293.166-1.845.498a3.51 3.51 0 0 0-1.299 1.378c-.316.587-.473 1.244-.473 1.972 0 .736.157 1.394.473 1.978a3.506 3.506 0 0 0 1.293 1.366 3.525 3.525 0 0 0 1.851.492c.689 0 1.306-.163 1.852-.492Zm34.312-2.575h-9.619c.095.655.305 1.223.629 1.702s.726.845 1.21 1.098a3.36 3.36 0 0 0 1.575.378c.718 0 1.306-.142 1.766-.425a2.484 2.484 0 0 0 1.012-1.23h3.163a5.694 5.694 0 0 1-1.138 2.11 5.953 5.953 0 0 1-2.041 1.553c-.819.387-1.72.581-2.702.581-1.205 0-2.296-.292-3.27-.875a6.222 6.222 0 0 1-2.288-2.372c-.551-1-.826-2.093-.826-3.284 0-1.191.275-2.285.826-3.284a6.2 6.2 0 0 1 2.288-2.373c.974-.583 2.065-.875 3.27-.875 1.206 0 2.28.288 3.222.863a6.038 6.038 0 0 1 2.197 2.308c.524.962.785 2.01.785 3.146.002.268-.018.595-.059.979Zm-2.897-2.241a2.365 2.365 0 0 0-.516-1.265 3.229 3.229 0 0 0-1.18-.924 3.612 3.612 0 0 0-1.564-.342c-.774 0-1.467.214-2.078.642-.611.428-1.033 1.056-1.265 1.887h6.603v.002ZM103.009 0v4.039l.06 1.282a4.53 4.53 0 0 0-.947-1.162 4.883 4.883 0 0 0-1.424-.881 4.616 4.616 0 0 0-1.785-.342c-1.166 0-2.204.292-3.114.874a5.934 5.934 0 0 0-2.12 2.367c-.505.994-.756 2.092-.756 3.29 0 1.199.254 2.297.761 3.296a5.941 5.941 0 0 0 2.12 2.367c.907.58 1.93.868 3.072.868.967 0 1.819-.231 2.558-.694.738-.463 1.307-1.047 1.708-1.75v2.074h2.756V0h-2.889Zm-.462 11.422a3.665 3.665 0 0 1-1.317 1.397 3.442 3.442 0 0 1-1.827.508 3.492 3.492 0 0 1-3.161-1.899 4.116 4.116 0 0 1-.468-1.96c0-.735.16-1.393.48-1.977a3.572 3.572 0 0 1 1.305-1.373 3.51 3.51 0 0 1 1.845-.498c.672 0 1.285.17 1.84.51.555.34.992.804 1.311 1.391.319.587.479 1.236.479 1.948a4.033 4.033 0 0 1-.487 1.953Zm-99.39 3.703a6.288 6.288 0 0 1-2.32-2.368C.28 11.763 0 10.666 0 9.467c0-1.19.28-2.285.838-3.284A6.269 6.269 0 0 1 3.157 3.81c.986-.584 2.094-.874 3.324-.874 1.239 0 2.352.292 3.343.874a6.251 6.251 0 0 1 2.324 2.373c.56 1 .84 2.095.84 3.284 0 1.199-.28 2.297-.84 3.296a6.187 6.187 0 0 1-2.33 2.367c-.994.58-2.11.869-3.349.869-1.222.001-2.326-.291-3.312-.874Zm5.187-2.314a3.475 3.475 0 0 0 1.294-1.366c.316-.583.473-1.242.473-1.978 0-.726-.157-1.385-.473-1.972-.315-.587-.749-1.047-1.3-1.378s-1.166-.498-1.845-.498-1.293.166-1.845.498a3.515 3.515 0 0 0-1.3 1.378c-.317.587-.474 1.246-.474 1.972 0 .736.157 1.395.473 1.978.315.584.747 1.04 1.295 1.366a3.529 3.529 0 0 0 1.851.492c.687 0 1.304-.163 1.851-.492Zm9.405 2.314a6.22 6.22 0 0 1-2.282-2.373c-.55-.998-.826-2.092-.826-3.283 0-1.182.275-2.273.826-3.274a6.28 6.28 0 0 1 2.282-2.378c.971-.588 2.056-.881 3.254-.881 1.03 0 1.969.201 2.816.605a5.909 5.909 0 0 1 2.12 1.678 6.426 6.426 0 0 1 1.198 2.44h-2.96c-.27-.663-.685-1.167-1.24-1.51-.555-.344-1.196-.517-1.922-.517-.607 0-1.178.155-1.714.462-.535.307-.966.754-1.293 1.336-.328.583-.492 1.262-.492 2.037 0 .784.164 1.465.492 2.045a3.5 3.5 0 0 0 1.293 1.336 3.352 3.352 0 0 0 1.714.467c.735 0 1.382-.181 1.94-.544.558-.364.967-.913 1.222-1.648h2.948a6.512 6.512 0 0 1-1.167 2.534 5.78 5.78 0 0 1-2.127 1.727c-.854.412-1.797.617-2.827.617-1.2-.001-2.284-.293-3.255-.876Zm17.164-1.906c-1.19 0-1.785-.716-1.785-2.146V5.799h2.552V3.305h-2.552V0h-2.9v3.305h-2.55v2.494h2.55v5.142c0 1.822.388 3.058 1.162 3.71.775.651 1.749.978 2.924.978h2.505v-2.41h-1.906Zm6.2 1.906a6.284 6.284 0 0 1-2.319-2.367c-.56-.994-.838-2.09-.838-3.29 0-1.19.28-2.284.838-3.283a6.268 6.268 0 0 1 2.319-2.373c.986-.584 2.095-.875 3.324-.875 1.24 0 2.352.292 3.343.875a6.251 6.251 0 0 1 2.325 2.373c.56.999.84 2.094.84 3.284 0 1.198-.28 2.297-.84 3.296a6.187 6.187 0 0 1-2.331 2.366c-.994.58-2.11.869-3.349.869-1.222 0-2.326-.292-3.312-.875Zm5.188-2.314a3.475 3.475 0 0 0 1.293-1.366c.316-.583.473-1.242.473-1.978 0-.726-.157-1.385-.473-1.972a3.51 3.51 0 0 0-1.3-1.378 3.51 3.51 0 0 0-1.844-.498c-.68 0-1.294.166-1.846.498s-.984.791-1.3 1.378c-.317.587-.474 1.246-.474 1.972 0 .736.157 1.395.474 1.978.314.584.747 1.04 1.294 1.366a3.528 3.528 0 0 0 1.851.492c.687 0 1.304-.163 1.852-.492Z"/></symbol><symbol id="burger" viewBox="0 0 32 32"><path d="M2.5 11.667a1 1 0 0 1 1-1h16.333a1 1 0 1 1 0 2H3.5a1 1 0 0 1-1-1ZM2.5 7a1 1 0 0 1 1-1h21a1 1 0 1 1 0 2h-21a1 1 0 0 1-1-1Zm0 9.333a1 1 0 0 1 1-1h21a1 1 0 1 1 0 2h-21a1 1 0 0 1-1-1ZM2.5 21a1 1 0 0 1 1-1h16.333a1 1 0 1 1 0 2H3.5a1 1 0 0 1-1-1Z"/></symbol><symbol id="lock" viewBox="0 0 32 32"><path d="M7.167 9.333a6.833 6.833 0 0 1 13.666 0v2.524c.157.007.306.016.447.027.646.053 1.224.165 1.763.44a4.5 4.5 0 0 1 1.966 1.966c.275.54.387 1.118.44 1.763.051.625.051 1.394.051 2.338v.551c0 .944 0 1.714-.051 2.338-.053.646-.165 1.224-.44 1.763a4.5 4.5 0 0 1-1.966 1.966c-.539.275-1.117.387-1.763.44-.624.051-1.394.051-2.338.051H9.058c-.944 0-1.714 0-2.338-.051-.646-.053-1.224-.165-1.763-.44a4.5 4.5 0 0 1-1.967-1.966c-.274-.539-.386-1.117-.439-1.763-.051-.624-.051-1.393-.051-2.338v-.55c0-.945 0-1.714.051-2.339.053-.645.165-1.224.44-1.763a4.5 4.5 0 0 1 1.966-1.966c.539-.275 1.117-.387 1.763-.44.141-.011.29-.02.447-.027V9.333Zm2 2.5h9.666v-2.5a4.833 4.833 0 1 0-9.666 0v2.5Zm-2.284 2.045c-.522.042-.808.12-1.018.228a2.5 2.5 0 0 0-1.093 1.092c-.106.21-.185.496-.228 1.018-.043.533-.044 1.22-.044 2.217v.467c0 .997 0 1.684.044 2.217.043.522.122.808.228 1.018a2.5 2.5 0 0 0 1.093 1.092c.21.107.496.186 1.018.229.533.043 1.22.044 2.217.044h9.8c.997 0 1.684 0 2.217-.044.522-.043.808-.122 1.018-.229a2.5 2.5 0 0 0 1.092-1.092c.107-.21.186-.496.229-1.018.043-.533.044-1.22.044-2.217v-.467c0-.996 0-1.684-.044-2.217-.043-.522-.122-.808-.229-1.018a2.5 2.5 0 0 0-1.092-1.092c-.21-.107-.496-.186-1.018-.228-.533-.044-1.22-.045-2.217-.045H9.1c-.997 0-1.684.001-2.217.045Z"/></symbol><symbol id="mail" viewBox="0 0 32 32"><path d="M7.891 3.667H20.11c.944 0 1.713 0 2.338.05.645.053 1.224.166 1.763.44a4.5 4.5 0 0 1 1.966 1.967c.268.525.381 1.088.436 1.715a1 1 0 0 1 .033.536c.022.525.022 1.138.022 1.85v7.55c0 .945 0 1.714-.051 2.339-.053.645-.165 1.223-.44 1.762a4.5 4.5 0 0 1-1.966 1.967c-.54.274-1.118.387-1.763.44-.625.05-1.394.05-2.338.05H7.89c-.944 0-1.713 0-2.338-.05-.645-.053-1.224-.166-1.763-.44a4.5 4.5 0 0 1-1.966-1.967c-.275-.539-.387-1.117-.44-1.762-.05-.625-.05-1.394-.05-2.338v-7.551c0-.712 0-1.325.021-1.85a1 1 0 0 1 .033-.536c.055-.627.168-1.19.436-1.715A4.5 4.5 0 0 1 3.79 4.157c.54-.274 1.118-.387 1.763-.44.625-.05 1.394-.05 2.338-.05Zm-4.558 6.42v7.646c0 .618 0 1.116.011 1.533l5.72-5.167-5.73-4.012Zm7.89 3.081L3.415 7.704c.045-.313.11-.514.19-.672a2.5 2.5 0 0 1 1.092-1.093c.21-.107.496-.185 1.018-.228.533-.044 1.22-.044 2.217-.044h12.134c.996 0 1.684 0 2.217.044.522.043.808.121 1.018.228a2.5 2.5 0 0 1 1.092 1.093c.08.158.145.359.19.672l-7.806 5.464a.884.884 0 0 0-.035.024l-1.175.823c-.84.588-1.05.715-1.245.764a1.333 1.333 0 0 1-.646 0c-.196-.049-.405-.176-1.245-.764l-1.175-.823a.877.877 0 0 0-.035-.024Zm-.477 2.108-6.827 6.166a2.5 2.5 0 0 0 .78.619c.21.107.495.185 1.017.228.533.044 1.22.044 2.217.044h12.134c.996 0 1.684 0 2.217-.044.522-.043.808-.121 1.018-.228a2.5 2.5 0 0 0 .779-.62l-6.827-6.165-.54.378-.125.088c-.646.453-1.179.827-1.783.977a3.332 3.332 0 0 1-1.612 0c-.604-.15-1.137-.524-1.783-.977l-.125-.088-.54-.378Zm8.19-1.177 5.72 5.167c.01-.417.01-.915.01-1.533v-7.646l-5.73 4.012Z"/></symbol><symbol id="trash" viewBox="0 0 32 32"><path d="M8.32 3.95h5.35c.54 0 .97-.44.97-.97S14.21 2 13.68 2H8.32c-.53 0-.97.44-.97.97s.44.98.97.98Zm10.71.73H2.97a.97.97 0 0 0 0 1.94h.87l.57 8.51c.04.67.08 1.23.15 1.69.07.48.18.92.42 1.34.36.64.92 1.16 1.58 1.48.43.21.88.29 1.36.33.46.03 1.02.03 1.7.03h2.77c.67 0 1.23 0 1.7-.04.48-.04.93-.12 1.36-.33.66-.32 1.21-.84 1.58-1.48.24-.41.35-.86.42-1.34.07-.46.1-1.02.15-1.69l.57-8.51h.87c.54 0 .97-.44.97-.97s-.45-.96-.98-.96Zm-3.38 10.29c-.05.72-.08 1.2-.14 1.57-.05.36-.12.54-.18.65-.17.3-.43.54-.74.69-.12.06-.3.11-.67.14-.37.03-.86.03-1.58.03H9.65c-.72 0-1.2 0-1.58-.03-.36-.03-.54-.08-.67-.14-.31-.15-.57-.39-.74-.69-.07-.12-.13-.29-.18-.65-.05-.37-.09-.85-.14-1.57L5.8 6.62h10.4l-.55 8.35Z"/><path d="M9.22 15.09c.54 0 .97-.44.97-.97V9.66a.97.97 0 0 0-.97-.97.98.98 0 0 0-.98.97v4.46c0 .54.44.97.98.97Zm3.56 0c.54 0 .97-.44.97-.97V9.66a.97.97 0 0 0-1.94 0v4.46c0 .54.44.97.97.97Z"/></symbol><symbol id="user" viewBox="0 0 32 32"><path d="M3.167 17.417a6.334 6.334 0 0 1 12.666 0H3.167ZM9.5 10.292a4.749 4.749 0 0 1-4.75-4.75A4.749 4.749 0 0 1 9.5.792a4.749 4.749 0 0 1 4.75 4.75 4.749 4.749 0 0 1-4.75 4.75Z"/></symbol><symbol id="user-arrow" viewBox="0 0 32 32"><path d="M4.792 9.75h13.417l-6.031 6.817a.906.906 0 0 1-.678.318.906.906 0 0 1-.677-.318L4.792 9.75Z"/></symbol><symbol id="login-arrow" viewBox="0 0 32 32"><path d="M8.96.293a1 1 0 0 1 1.414 0l5 5a1 1 0 0 1 0 1.414l-5 5a1 1 0 0 1-1.415-1.414L12.252 7H1.333a1 1 0 0 1 0-2h10.92L8.958 1.707a1 1 0 0 1 0-1.414Z"/></symbol><symbol id="ua-arrow" viewBox="0 0 32 32"><path d="M10.349 12.284a.916.916 0 0 0 1.301 0l4.199-4.208a.916.916 0 1 1 1.301 1.292l-4.207 4.208a2.75 2.75 0 0 1-3.887 0L4.85 9.368a.917.917 0 0 1 1.3-1.292l4.199 4.207Z"/></symbol><symbol id="book" viewBox="0 0 32 32"><path d="M31.23 11.23a14.908 14.908 0 0 0-2.14-.938V28.8a14.236 14.236 0 0 0-5.09-.954c-2.764 0-5.498.83-8 2.43V11.663c-2.356-1.431-5.076-2.277-8-2.277-2.604 0-5.062.677-7.23 1.846-.48.246-.77.784-.77 1.354V31.17c0 .893.684 1.523 1.455 1.523.232 0 .465-.061.698-.184 1.76-.97 3.738-1.585 5.847-1.585 3.01 0 5.79 1.262 8 3.077 2.21-1.815 4.99-3.077 8-3.077 2.11 0 4.087.616 5.847 1.6.233.123.466.185.698.185.757 0 1.455-.631 1.455-1.523v-18.6c0-.57-.29-1.108-.77-1.354ZM13.09 28.8A14.236 14.236 0 0 0 8 27.846c-1.73 0-3.433.323-5.09.954V13.554A12.343 12.343 0 0 1 8 12.46c1.745 0 3.476.385 5.09 1.108V28.8ZM26.183 4l-7.273 7.692v14.616l7.273-6.923V4Z"/></symbol><symbol id="cart" viewBox="0 0 32 32"><path d="M15.833 5.833h-2.5V5a3.333 3.333 0 0 0-6.666 0v.833h-2.5a.833.833 0 0 0-.834.834v9.166a2.5 2.5 0 0 0 2.5 2.5h8.334a2.5 2.5 0 0 0 2.5-2.5V6.667a.833.833 0 0 0-.834-.834ZM8.333 5a1.667 1.667 0 1 1 3.334 0v.833H8.333V5ZM15 15.833a.833.833 0 0 1-.833.834H5.833A.833.833 0 0 1 5 15.833V7.5h1.667v.833a.833.833 0 1 0 1.666 0V7.5h3.334v.833a.834.834 0 0 0 1.666 0V7.5H15v8.333Z"/></symbol><symbol id="icon-logo" viewBox="0 0 32 32"><path fill="#f6f6f6" d="m0 0 16.343 16.171L32 32V0H0z" style="fill:var(--color1,#f6f6f6)"/><path fill="#f6f6f6" d="M4.457 4.229 16.4 16.058l11.257 11.486h-23.2V4.23z" style="fill:var(--color1,#f6f6f6)"/><path fill="#4f2ee8" d="M27.733 27.618 15.79 15.789 4.533 4.303h23.2v23.314z" style="fill:var(--color2,#4f2ee8)"/><path fill="#4f2ee8" d="m9.257 9.029 13.6 13.6h-13.6v-13.6z" style="fill:var(--color2,#4f2ee8)"/><path fill="#f6f6f6" d="m9.257 9.029 13.6 13.6v-13.6h-13.6z" style="fill:var(--color1,#f6f6f6)"/></symbol><symbol id="icon-Bookshelf" viewBox="0 0 178 32"><path d="M22.176 8.533c0-4.731-3.497-7.406-9.545-7.406H0v29.417h13.33c6.089 0 9.998-2.921 9.998-8.599 0-4.402-2.633-6.665-5.719-7.2v-.082c2.427-.823 4.567-2.51 4.567-6.13zm-17.28 4.772V5.282h7.858c2.921 0 4.526 1.44 4.526 4.032s-1.317 3.991-4.814 3.991h-7.57zm0 3.662h8.599c3.086 0 4.937 1.687 4.937 4.69 0 2.757-1.275 4.731-5.472 4.731H4.896v-9.422zM35.89 31.161c-6.583 0-10.574-4.567-10.574-11.109S29.307 8.943 35.89 8.943s10.574 4.567 10.574 11.109-3.991 11.109-10.574 11.109zm0-3.538c4.114 0 6.254-3.25 6.254-7.57 0-4.361-2.139-7.57-6.254-7.57s-6.254 3.209-6.254 7.57c0 4.32 2.139 7.57 6.254 7.57zm23.022 3.538c-6.583 0-10.574-4.567-10.574-11.109S52.329 8.943 58.912 8.943s10.574 4.567 10.574 11.109-3.991 11.109-10.574 11.109zm0-3.538c4.114 0 6.254-3.25 6.254-7.57 0-4.361-2.139-7.57-6.254-7.57s-6.254 3.209-6.254 7.57c0 4.32 2.139 7.57 6.254 7.57zm13.56-26.496v29.417h4.32v-7.611l2.921-2.757 6.624 10.368h5.184l-8.846-13.207 7.982-7.817H85.35l-8.558 8.434V1.127h-4.32zm29.463 16.704c-3.045-.699-5.39-.864-5.39-3.003 0-1.481 1.399-2.469 3.991-2.469 3.374 0 4.197 1.687 4.485 3.333h4.197c-.288-3.662-3.003-6.747-8.722-6.747-5.266 0-8.311 2.757-8.311 6.213 0 4.773 4.526 5.431 7.858 6.213 3.086.741 5.595.946 5.595 3.579 0 1.317-1.275 2.798-4.279 2.798-4.443 0-5.431-1.934-5.637-4.197h-4.197c.206 4.443 3.127 7.611 9.915 7.611 5.102 0 8.558-2.51 8.558-6.542 0-5.019-4.197-5.883-8.064-6.789zm22.188-8.887c-3.538 0-5.719 1.646-6.83 3.291h-.082V1.126h-4.32v29.417h4.32V17.748c0-3.127 2.263-5.143 5.431-5.143 3.003 0 4.197 1.81 4.197 4.649v13.289h4.361V16.02c0-4.814-3.086-7.077-7.077-7.077zm20.325 18.679c-3.826 0-6.089-2.921-6.089-6.459h16.128c0-7.488-3.333-12.219-10.121-12.219-6.336 0-10.327 4.279-10.327 11.109 0 6.583 3.991 11.109 10.533 11.109 5.39 0 8.517-3.045 9.586-7.035h-4.32c-.37 1.275-1.81 3.497-5.39 3.497zm-.082-15.264c3.497 0 5.801 2.345 5.801 5.595h-11.808c0-3.25 2.51-5.595 6.007-5.595zm13.165-11.232v29.417h4.361V1.127h-4.361zm18.472 3.538V1.127a15.12 15.12 0 0 0-2.88-.288c-3.456 0-5.349 1.563-5.349 6.007V9.52h-3.003v3.538h3.003v17.486h4.361V13.058h3.867V9.52h-3.867V7.216c0-2.386 1.07-2.674 3.867-2.551z"/></symbol><symbol id="icon-UA" viewBox="0 0 20 32"><path fill="#fff" style="fill:var(--color1,#fff)" d="M9.005 30.888a8.64 8.64 0 0 1-3.414-5.351H0V2.42c2.991 1.443 5.153 4.599 5.388 7.876l.846 6.493-.407-.045c-.893 0-1.676.812-1.676 1.608 0 .752.595 1.383 1.378 1.548l1.018.226c1.676-3.051 2.631-6.042 2.631-8.973 0-2.645-.36-5.291-.423-7.996 0-1.202.486-2.3 1.253-3.156.783.857 1.253 1.954 1.253 3.156 0 2.705-.423 5.351-.423 7.996 0 2.931.955 5.922 2.631 8.973l1.018-.226c.783-.165 1.378-.812 1.378-1.548 0-.812-.783-1.608-1.676-1.608l-.423.06.846-6.493c.423-3.277 2.396-6.448 5.388-7.876v23.117h-5.576c-.423 2.179-1.613 4.148-3.414 5.351-.423.286-.783.631-1.018 1.097-.219-.466-.579-.812-.987-1.112zM2.647 17.556c.235-.857.893-1.608 1.738-2.074l-.658-5.351a8.288 8.288 0 0 0-2.036-4.374v11.784h.955v.015zm2.819 6.373c0-.812.125-1.548.298-2.3l-.783-.18c-1.143-.346-2.036-1.203-2.334-2.3h-.955v4.78h3.774zm3.712 0c0-.977-.783-1.834-1.801-1.954-.172.631-.298 1.263-.298 1.954h2.099zm0 1.623H7.314c.298 1.263.955 2.42 1.864 3.397v-3.397zm2.631-5.005c-.72-1.262-1.378-2.585-1.801-3.968-.423 1.383-1.081 2.706-1.801 3.968.72.165 1.316.631 1.801 1.157.486-.526 1.081-.992 1.801-1.157zm1.143 3.382c0-.691-.125-1.323-.297-1.954-1.018.12-1.801.977-1.801 1.954h2.099zm-.235 1.623h-1.864v3.397c.908-.992 1.566-2.134 1.864-3.397zm5.623-1.623v-4.78h-.955c-.298 1.097-1.206 1.954-2.334 2.3l-.783.18c.172.752.298 1.488.298 2.3h3.774zm0-6.373V5.757c-1.081 1.202-1.864 2.706-2.036 4.374l-.658 5.351c.846.466 1.504 1.203 1.739 2.074h.955z"/></symbol><symbol id="icon-arrow" viewBox="0 0 32 32"><path d="M17.867 15.053a1.334 1.334 0 0 1 0 1.894l-6.12 6.107a1.334 1.334 0 1 0 1.88 1.894l6.12-6.12a4.001 4.001 0 0 0 0-5.654l-6.12-6.12a1.337 1.337 0 0 0-2.172.434 1.331 1.331 0 0 0 .292 1.46l6.12 6.107z"/></symbol><symbol id="icon-arrow-ff" viewBox="0 0 32 32"><path d="M22.283 15.052a1.334 1.334 0 0 1 0 1.894l-6.12 6.107a1.334 1.334 0 1 0 1.88 1.894l6.12-6.12a4.001 4.001 0 0 0 0-5.654l-6.12-6.12a1.336 1.336 0 0 0-1.88 1.894l6.12 6.107z"/><path d="M12.95 15.052a1.334 1.334 0 0 1 0 1.894l-6.12 6.107a1.334 1.334 0 1 0 1.88 1.894l6.12-6.12a4.001 4.001 0 0 0 0-5.654l-6.12-6.12a1.337 1.337 0 0 0-2.172.434 1.331 1.331 0 0 0 .292 1.46l6.12 6.107z"/></symbol><symbol id="ua" viewBox="0 0 20 32"><path d="M9.005 30.888a8.64 8.64 0 0 1-3.414-5.351H0V2.42c2.991 1.443 5.153 4.6 5.388 7.876l.845 6.493-.407-.045c-.893 0-1.676.812-1.676 1.608 0 .752.595 1.383 1.379 1.548l1.018.226c1.675-3.051 2.63-6.042 2.63-8.973 0-2.646-.36-5.291-.422-7.997 0-1.202.485-2.3 1.253-3.156.783.857 1.253 1.954 1.253 3.156 0 2.706-.423 5.351-.423 7.997 0 2.93.955 5.922 2.631 8.973l1.018-.226c.783-.165 1.378-.811 1.378-1.548 0-.811-.783-1.608-1.675-1.608l-.423.06.845-6.493C15.035 7.034 17.01 3.863 20 2.435v23.117h-5.576c-.422 2.18-1.613 4.148-3.414 5.35-.423.286-.783.632-1.018 1.098-.22-.466-.58-.812-.987-1.112ZM2.647 17.556c.235-.857.893-1.609 1.738-2.075l-.658-5.35a8.286 8.286 0 0 0-2.036-4.374V17.54h.956v.015Zm2.819 6.373c0-.812.125-1.548.298-2.3l-.784-.18c-1.143-.346-2.036-1.203-2.333-2.3H1.69v4.78h3.775Zm3.712 0c0-.977-.783-1.834-1.801-1.954-.173.63-.298 1.262-.298 1.954h2.099Zm0 1.623H7.314c.298 1.262.955 2.42 1.864 3.397v-3.397Zm2.63-5.005c-.72-1.263-1.377-2.585-1.8-3.968-.423 1.383-1.08 2.705-1.801 3.968.72.165 1.315.631 1.8 1.157.486-.526 1.082-.992 1.802-1.157Zm1.144 3.382c0-.692-.125-1.323-.297-1.954-1.018.12-1.801.977-1.801 1.954h2.098Zm-.235 1.623h-1.863v3.397c.908-.992 1.566-2.135 1.863-3.397Zm5.623-1.623v-4.78h-.956c-.297 1.097-1.206 1.954-2.333 2.3l-.783.18c.172.752.297 1.488.297 2.3h3.775Zm0-6.373v-11.8c-1.08 1.203-1.864 2.706-2.036 4.375l-.658 5.35c.846.466 1.504 1.203 1.738 2.075h.956Z"/></symbol></defs></svg>