<svg aria-hidden="true" style="position: absolute; width: 0; height: 0; overflow: hidden;" version="1.1" xmlns="http://www.w3.org/2000/svg" xmlns:xlink="http://www.w3.org/1999/xlink">
<defs>
<symbol id="gotop" viewBox="0 0 32 32">
  <path d="M4.5 19.6l11.2-11.233c0.133-0.133 0.278-0.228 0.433-0.283s0.322-0.084 0.5-0.084c0.178 0 0.345 0.028 0.5 0.084s0.3 0.149 0.433 0.283l11.233 11.233c0.311 0.311 0.467 0.7 0.467 1.167s-0.167 0.867-0.5 1.2c-0.333 0.333-0.722 0.5-1.167 0.5s-0.833-0.167-1.167-0.5l-9.8-9.8-9.8 9.8c-0.311 0.311-0.694 0.467-1.149 0.467s-0.851-0.167-1.184-0.5-0.5-0.722-0.5-1.167c0-0.444 0.167-0.833 0.5-1.167z">
  </path>
</symbol>
<symbol id="gh" viewBox="0 0 24 24">
  <path d="M12 0C5.37346 0 0 5.5085 0 12.3038 0 17.74 3.43837 22.3519 8.20639 23.9789c.5997.1138.81993-.2669.81993-.5919 0-.2934-.0112-1.2627-.01628-2.2908-3.33852.7443-4.04297-1.4517-4.04297-1.4517-.54586-1.4221-1.33237-1.8002-1.33237-1.8002-1.08872-.7637.08206-.748.08206-.748 1.20504.0868 1.83956 1.2679 1.83956 1.2679 1.07027 1.881 2.80724 1.3372 3.49202 1.0229.10767-.7953.41871-1.338.76185-1.6453-2.66531-.3112-5.46728-1.3662-5.46728-6.0806 0-1.3432.46878-2.44087 1.23647-3.30249-.12461-.30995-.53532-1.56131.11623-3.25608 0 0 1.00768-.33069 3.30087 1.26121.95715-.2727 1.98372-.40934 3.00352-.41397 1.0199.00463 2.0472.14127 3.0062.41397 2.2905-1.5919 3.2968-1.26121 3.2968-1.26121.6531 1.69477.2422 2.94613.1176 3.25608.7694.86162 1.235 1.95919 1.235 3.30249 0 4.7256-2.8073 5.7662-5.4793 6.0708.4303.3818.8139 1.1306.8139 2.2785 0 1.6462-.014 2.9712-.014 3.3765 0 .3274.216.711.8244.5902C20.566 22.3485 24 17.7382 24 12.3038 24 5.5085 18.6273 0 12 0Z">
  </path>
</symbol>
<symbol id="goit" viewBox="0 0 80 24">
  <path fill="#FF5C00" d="M79.6801 0c-11.58.01-23.16.01-34.74 0-.26 0-.33.06-.33.33.01 7.75.01 15.49.01 23.24v.29h35.38v-.31c0-7.74 0-15.47.01-23.21-.01-.26-.07-.34-.33-.34Zm-22.3 17.3c-.75-.01-1.5 0-2.25-.01-.08 0-.15-.01-.24-.02V6.52c.09-.01.16-.02.24-.02.75 0 1.5.01 2.25-.01.22 0 .27.07.27.28-.01 3.41-.01 6.83 0 10.24 0 .22-.06.29-.27.29Zm12.05-8.19c-.85-.01-1.71 0-2.56-.01-.23 0-.29.07-.29.29.01 2.52 0 5.04.01 7.56 0 .26-.06.34-.33.34-.72-.02-1.45-.01-2.17 0-.22 0-.29-.07-.29-.29.01-2.51.01-5.03.01-7.54 0-.36 0-.36-.37-.36-.83 0-1.65-.01-2.48 0-.24 0-.31-.07-.31-.31.02-.66.02-1.32 0-1.98-.01-.26.07-.34.33-.34 1.4.01 2.81.01 4.21.01h4.11c.43 0 .43 0 .43.41 0 .63-.01 1.27.01 1.9.01.27-.08.32-.31.32Z">
  </path>
  <path d="M43.7 11.88C40.99 7.99999 38.28 4.12999 35.58.239988c-.1-.1500002-.22-.1900002-.38-.1900002H0V24H35.2c.19 0 .29-.06.4-.21 2.08-2.98 4.17-5.95 6.25-8.92.65-.93 1.31-1.87 1.97-2.81l-.12-.18Zm-25.18 3.67c0 .1-.05.25-.12.31-1.78 1.45-3.79 1.99-6.04 1.46-2.56-.6-4.16-2.75-4.12-5.42.05-3.06001 2.42-5.41001 5.5-5.46001 1.7-.03 3.21.41 4.5 1.62-.57.69-1.13 1.37-1.7 2.06001-.24-.18001-.47-.37001-.71-.53001-.91-.6-1.9-.82-2.92-.42-1.22.48-1.77 1.47001-1.83 2.74001-.07 1.35.7 2.55 1.93 2.94.92.3 1.82.19 2.68-.24.13-.06.19-.15.18-.3-.01-.29 0-.58 0-.92h-2.25V11h4.91c.01.07.02.14.02.21-.02 1.44-.02 2.89-.03 4.34Zm9.44 1.91c-1.96.22-3.68-.29-5.04-1.75-2.68-2.89-1.56-8.04001 2.86-9.11001.47-.11.97-.14 1.45-.21 2.7.05 4.88 1.69 5.51 4.20001.84 3.27-1.4 6.49-4.78 6.87Z">
  </path>
  <path d="M26.5301 9.04998c-1.34.32-2.21 1.46002-2.21 2.96002.01.1.01.23.02.37.01.09.03.19.05.28.25 1.08.87 1.85 1.94 2.17 1.07.32 2.05.12 2.86-.67.77-.76.98-1.7.83-2.74-.24-1.66002-1.86-2.76002-3.49-2.37002Z">
  </path>
</symbol>
<symbol id="close-btn" viewBox="0 0 32 32">
  <path d="M5.94 5.94a1.5 1.5 0 0 1 2.12 0L14 11.878l5.94-5.94a1.5 1.5 0 0 1 2.12 2.122L16.122 14l5.94 5.94a1.5 1.5 0 0 1-2.122 2.12L14 16.122l-5.94 5.94a1.5 1.5 0 0 1-2.12-2.122L11.878 14l-5.94-5.94a1.5 1.5 0 0 1 0-2.12Z"></path>
</symbol>
<symbol id="team-logo" viewBox="0 0 121 16">
  <path fill="#FF5C00" d="M53.9887 6.92328c-.2692-.16192-.4795-.37983-.6307-.65374-.1513-.27391-.2269-.57202-.2269-.89587 0-.32384.0741-.62196.2208-.89586.1467-.27391.357-.49182.6307-.65374.2738-.16193.5869-.24213.9393-.24213.3449 0 .6534.0802.9272.24213.2737.16192.4855.37983.6367.65374.1513.2739.2269.57202.2269.89586 0 .51149-.1679.93824-.5052 1.28025-.3357.342-.7698.51149-1.2992.51149-.3433 0-.6504-.08172-.9196-.24213ZM53.9887 15.1495c-.2692-.1619-.4795-.3798-.6307-.6537-.1513-.2739-.2269-.5736-.2269-.8959 0-.3238.0741-.622.2208-.8959.1467-.2739.357-.4918.6307-.6537.2738-.1619.5869-.2421.9393-.2421.3449 0 .6534.0802.9272.2421.2737.1619.4855.3798.6367.6537.1513.2739.2269.5736.2269.8959 0 .5115-.1679.9382-.5052 1.2802-.3357.342-.7698.5115-1.2992.5115-.3433 0-.6504-.0802-.9196-.2421ZM59.4172 6.92328c-.2693-.16192-.4795-.37983-.6308-.65374-.1512-.27391-.2268-.57202-.2268-.89587 0-.32384.0741-.62196.2208-.89586.1467-.27391.3569-.49182.6307-.65374.2738-.16193.5869-.24213.9393-.24213.3448 0 .6534.0802.9271.24213.2738.16192.4855.37983.6368.65374.1512.2739.2269.57202.2269.89586 0 .51149-.1679.93824-.5052 1.28025-.3358.342-.7699.51149-1.2992.51149-.3434 0-.6504-.08172-.9196-.24213ZM59.4172 15.1495c-.2693-.1619-.4795-.3798-.6308-.6537-.1512-.2739-.2268-.5736-.2268-.8959 0-.3238.0741-.622.2208-.8959.1467-.2739.3569-.4918.6307-.6537.2738-.1619.5869-.2421.9393-.2421.3448 0 .6534.0802.9271.2421.2738.1619.4855.3798.6368.6537.1512.2739.2269.5736.2269.8959 0 .5115-.1679.9382-.5052 1.2802-.3358.342-.7699.5115-1.2992.5115-.3434 0-.6504-.0802-.9196-.2421Z">
  </path>
  <path d="M67.4378 15.1253c-.9695-.5826-1.7303-1.3741-2.2824-2.3728-.5505-.9988-.8258-2.0929-.8258-3.28386 0-1.18188.2753-2.27296.8258-3.27173.5506-.99877 1.3114-1.79173 2.2824-2.37889.971-.58716 2.054-.88073 3.2519-.88073 1.03 0 1.9677.20126 2.8147.60531.847.40405 1.5534.96245 2.1205 1.67824.5672.71578.9665 1.52842 1.1979 2.43942h-2.9584c-.2723-.66282-.6852-1.16675-1.2403-1.51026-.555-.34352-1.1963-.51603-1.9223-.51603-.6066 0-1.1783.15435-1.7122.46155-.5354.3072-.9665.75362-1.2932 1.33623-.3267.58262-.4916 1.26209-.4916 2.03689 0 .78386.1634 1.46336.4916 2.04296.3267.5796.7593 1.0245 1.2932 1.3362.5354.3118 1.1056.4676 1.7122.4676.735 0 1.3809-.1816 1.9405-.5448.5596-.3632.9665-.9125 1.2221-1.6479h2.9463c-.2162.9503-.605 1.7962-1.1676 2.5347-.5627.7385-1.272 1.3151-2.1266 1.7252-.8545.4116-1.7968.6174-2.8268.6174-1.1979 0-2.2824-.2921-3.2519-.8747ZM81.4405 15.1253c-.9862-.5826-1.7591-1.3725-2.3172-2.3668-.5596-.9942-.8379-2.0913-.8379-3.28986 0-1.19096.2798-2.28507.8379-3.28384.5596-.99877 1.331-1.79022 2.3172-2.37283.9861-.58262 2.0948-.87468 3.3244-.87468 1.2373 0 2.352.29206 3.3427.87468.9907.58261 1.7651 1.37406 2.3247 2.37283.5596.99877.8379 2.09288.8379 3.28384 0 1.19856-.2798 2.29716-.8379 3.29596-.5596.9988-1.3356 1.7872-2.3293 2.3668-.9937.5796-2.1099.8686-3.3486.8686-1.2237 0-2.3278-.2921-3.3139-.8747Zm5.1863-2.3138c.5476-.3269.9786-.7824 1.2932-1.3665.3161-.5826.4734-1.2424.4734-1.97787 0-.72638-.1573-1.38466-.4734-1.97182-.3161-.58715-.7487-1.04568-1.2992-1.3786-.5506-.33141-1.1662-.49788-1.8453-.49788s-1.2932.16647-1.8452.49788c-.5506.33141-.9847.79145-1.2993 1.3786-.3161.58716-.4734 1.24393-.4734 1.97182 0 .73547.1573 1.39377.4734 1.97787.3146.5826.7472 1.0381 1.2932 1.3665.5476.3284 1.1631.4918 1.8513.4918.6882 0 1.3053-.1634 1.8513-.4918ZM120.939 10.2359h-9.619c.095.6552.305 1.2227.629 1.7024s.726.8444 1.21 1.0972c.483.2512 1.007.3783 1.575.3783.718 0 1.306-.1423 1.766-.4253.459-.2829.797-.693 1.012-1.2287h3.163c-.217.7596-.595 1.4618-1.138 2.1095-.543.6477-1.223 1.1637-2.041 1.5526-.819.3874-1.72.5811-2.702.5811-1.205 0-2.296-.292-3.27-.8747-.974-.5826-1.736-1.374-2.288-2.3728-.551-.9988-.826-2.0929-.826-3.28384 0-1.19096.275-2.28506.826-3.28384.55-.99877 1.313-1.79022 2.288-2.37283.974-.58262 2.065-.87468 3.27-.87468 1.206 0 2.28.28752 3.222.86257.942.57505 1.674 1.34532 2.197 2.30777.524.96245.785 2.01116.785 3.14612.002.26786-.018.59473-.059.97913Zm-2.897-2.24121c-.041-.4555-.212-.87619-.516-1.26511-.304-.3874-.698-.6946-1.18-.9231-.484-.22851-1.004-.34201-1.564-.34201-.774 0-1.467.21338-2.078.64164-.611.42826-1.033 1.05627-1.265 1.88707h6.603v.00151ZM103.009 0v4.03897l.06 1.28175c-.231-.41464-.547-.80355-.947-1.1622-.399-.36017-.874-.65374-1.424-.88074-.551-.2285-1.1469-.342-1.7852-.342-1.1661 0-2.2037.29206-3.1142.87468-.9105.58262-1.6169 1.37255-2.1205 2.36678-.5037.99423-.7548 2.09137-.7548 3.28989 0 1.19857.2541 2.29717.7608 3.29597.5067.9987 1.2146 1.7872 2.1206 2.3668.9059.5795 1.9299.8686 3.0718.8686.9665 0 1.8185-.2315 2.5575-.6946.738-.4631 1.307-1.0472 1.708-1.7494v2.0732h2.756V0h-2.889Zm-.462 11.4223c-.323.5917-.762 1.0563-1.317 1.3968-.555.3389-1.165.5084-1.8271.5084-.6942 0-1.3174-.1695-1.8679-.5084-.5506-.339-.9832-.8036-1.2932-1.3907-.3116-.5872-.4674-1.2409-.4674-1.95975 0-.73546.1603-1.39374.4795-1.97787.3191-.58262.7547-1.04114 1.3053-1.37255.5505-.33141 1.1661-.49788 1.8452-.49788.6716 0 1.2846.16949 1.8396.50998.555.34049.992.80356 1.311 1.39071.319.58716.479 1.23636.479 1.94761-.003.71125-.163 1.36195-.487 1.95365ZM3.15659 15.1253c-.98615-.5841-1.75904-1.3725-2.318665-2.3683C.279812 11.7628 0 10.6657 0 9.46714c0-1.19095.279812-2.28506.837925-3.28383.559625-.99877 1.332515-1.79022 2.318665-2.37284.98615-.58413 2.09481-.87468 3.32447-.87468 1.23874 0 2.35194.29207 3.34263.87468.99071.58262 1.76511 1.37407 2.32471 2.37284.5596.99877.8394 2.09439.8394 3.28383 0 1.19856-.2798 2.29716-.8394 3.29596-.5596.9988-1.3355 1.7887-2.33076 2.3668-.99371.5796-2.10994.8686-3.34868.8686-1.2221.0015-2.32622-.2906-3.31237-.8732Zm5.18787-2.3138c.54753-.3269.97859-.7824 1.29319-1.3665.31611-.5826.47345-1.2424.47345-1.97786 0-.72637-.15734-1.38466-.47345-1.97181-.3146-.58716-.74869-1.0472-1.29924-1.37861s-1.16613-.49787-1.84525-.49787c-.67911 0-1.29318.16646-1.84525.49787-.55206.33141-.98464.79145-1.30075 1.37861-.31611.58715-.47341 1.24544-.47341 1.97181 0 .73546.1573 1.39526.47341 1.97786.3146.5841.74718 1.0396 1.2947 1.3665.54753.3284 1.16463.4918 1.8513.4918.68668 0 1.30378-.1634 1.8513-.4918ZM17.7493 15.1253c-.971-.5826-1.7318-1.374-2.2824-2.3728-.5505-.9988-.8258-2.0929-.8258-3.28384 0-1.18188.2753-2.27296.8258-3.27325.5506-.99877 1.3129-1.79173 2.2824-2.37889.971-.58715 2.0555-.88073 3.2534-.88073 1.03 0 1.9693.20127 2.8163.60532.847.40404 1.5533.96245 2.1205 1.67823.5672.71579.9665 1.52842 1.1979 2.43942h-2.96c-.2707-.66282-.6851-1.16674-1.2402-1.51026-.5551-.34351-1.1964-.51603-1.9224-.51603-.6065 0-1.1782.15436-1.7137.46155-.5354.3072-.9665.75362-1.2932 1.33624-.3282.58261-.4915 1.26208-.4915 2.03688 0 .78386.1633 1.46486.4915 2.04446.3267.5796.7593 1.0245 1.2932 1.3362.5355.3118 1.1072.4676 1.7137.4676.7351 0 1.3824-.1816 1.9405-.5447.5581-.3632.9665-.9126 1.2221-1.648h2.9479c-.2163.9503-.605 1.7963-1.1677 2.5347-.5626.74-1.272 1.3151-2.1265 1.7267-.8546.4116-1.7969.6174-2.8269.6174-1.1994-.0015-2.2839-.2936-3.2549-.8762ZM34.913 13.2186c-1.1903 0-1.7847-.7158-1.7847-2.1459V5.79892h2.5516v-2.4939h-2.5516V0h-2.8995v3.30502h-2.5516v2.4939h2.5516v5.14218c0 1.822.3872 3.0583 1.1616 3.7106.7744.6507 1.7485.9775 2.9237.9775h2.5047v-2.4106H34.913ZM41.1129 15.1253c-.9862-.5826-1.7591-1.3725-2.3187-2.3668-.5596-.9942-.8379-2.0913-.8379-3.28986 0-1.19096.2798-2.28507.8379-3.28384.5596-.99877 1.3325-1.79022 2.3187-2.37283.9861-.58413 2.0948-.87468 3.3245-.87468 1.2387 0 2.3519.29206 3.3426.87468.9907.58261 1.7651 1.37406 2.3247 2.37283.5596.99877.8394 2.0944.8394 3.28384 0 1.19856-.2798 2.29716-.8394 3.29596-.5596.9988-1.3355 1.7887-2.3308 2.3668-.9937.5796-2.1099.8686-3.3486.8686-1.2221 0-2.3263-.2921-3.3124-.8747Zm5.1879-2.3138c.5475-.3269.9786-.7824 1.2932-1.3665.3161-.5826.4734-1.2424.4734-1.97787 0-.72638-.1573-1.38466-.4734-1.97182-.3146-.58715-.7487-1.04719-1.2993-1.3786-.5505-.33141-1.1661-.49788-1.8452-.49788-.6792 0-1.2932.16647-1.8453.49788s-.9846.79145-1.3007 1.3786c-.3162.58716-.4734 1.24544-.4734 1.97182 0 .73547.1572 1.39527.4734 1.97787.3146.5841.7471 1.0396 1.2947 1.3665.5475.3284 1.1646.4918 1.8513.4918.6866 0 1.3037-.1634 1.8513-.4918Z">
  </path>
</symbol>
<symbol id="burger" viewBox="0 0 32 32">
  <path d="M2.5 11.667a1 1 0 0 1 1-1h16.333a1 1 0 1 1 0 2H3.5a1 1 0 0 1-1-1ZM2.5 7a1 1 0 0 1 1-1h21a1 1 0 1 1 0 2h-21a1 1 0 0 1-1-1ZM2.5 16.333a1 1 0 0 1 1-1h21a1 1 0 1 1 0 2h-21a1 1 0 0 1-1-1ZM2.5 21a1 1 0 0 1 1-1h16.333a1 1 0 1 1 0 2H3.5a1 1 0 0 1-1-1Z">
  </path>
</symbol>
<symbol id="lock" viewBox="0 0 32 32">
  <path d="M7.167 9.333a6.833 6.833 0 0 1 13.666 0v2.524c.157.007.306.016.447.027.646.053 1.224.165 1.763.44a4.5 4.5 0 0 1 1.966 1.966c.275.54.387 1.118.44 1.763.051.625.051 1.394.051 2.338v.551c0 .944 0 1.714-.051 2.338-.053.646-.165 1.224-.44 1.763a4.5 4.5 0 0 1-1.966 1.966c-.539.275-1.117.387-1.763.44-.624.051-1.394.051-2.338.051H9.058c-.944 0-1.714 0-2.338-.051-.646-.053-1.224-.165-1.763-.44a4.5 4.5 0 0 1-1.967-1.966c-.274-.539-.386-1.117-.439-1.763-.051-.624-.051-1.393-.051-2.338v-.55c0-.945 0-1.714.051-2.339.053-.645.165-1.224.44-1.763a4.5 4.5 0 0 1 1.966-1.966c.539-.275 1.117-.387 1.763-.44.141-.011.29-.02.447-.027V9.333Zm2 2.5h9.666v-2.5a4.833 4.833 0 1 0-9.666 0v2.5Zm-2.284 2.045c-.522.042-.808.12-1.018.228a2.5 2.5 0 0 0-1.093 1.092c-.106.21-.185.496-.228 1.018-.043.533-.044 1.22-.044 2.217v.467c0 .997 0 1.684.044 2.217.043.522.122.808.228 1.018a2.5 2.5 0 0 0 1.093 1.092c.21.107.496.186 1.018.229.533.043 1.22.044 2.217.044h9.8c.997 0 1.684 0 2.217-.044.522-.043.808-.122 1.018-.229a2.5 2.5 0 0 0 1.092-1.092c.107-.21.186-.496.229-1.018.043-.533.044-1.22.044-2.217v-.467c0-.996 0-1.684-.044-2.217-.043-.522-.122-.808-.229-1.018a2.5 2.5 0 0 0-1.092-1.092c-.21-.107-.496-.186-1.018-.228-.533-.044-1.22-.045-2.217-.045H9.1c-.997 0-1.684.001-2.217.045Z">
  </path>
</symbol>
<symbol id="mail" viewBox="0 0 32 32">
  <path d="M7.891 3.667H20.11c.944 0 1.713 0 2.338.05.645.053 1.224.166 1.763.44a4.5 4.5 0 0 1 1.966 1.967c.268.525.381 1.088.436 1.715a1 1 0 0 1 .033.536c.022.525.022 1.138.022 1.85v7.55c0 .945 0 1.714-.051 2.339-.053.645-.165 1.223-.44 1.762a4.5 4.5 0 0 1-1.966 1.967c-.54.274-1.118.387-1.763.44-.625.05-1.394.05-2.338.05H7.89c-.944 0-1.713 0-2.338-.05-.645-.053-1.224-.166-1.763-.44a4.5 4.5 0 0 1-1.966-1.967c-.275-.539-.387-1.117-.44-1.762-.05-.625-.05-1.394-.05-2.338v-7.551c0-.712 0-1.325.021-1.85a1 1 0 0 1 .033-.536c.055-.627.168-1.19.436-1.715A4.5 4.5 0 0 1 3.79 4.157c.54-.274 1.118-.387 1.763-.44.625-.05 1.394-.05 2.338-.05Zm-4.558 6.42v7.646c0 .618 0 1.116.011 1.533l5.72-5.167-5.73-4.012Zm7.89 3.081L3.415 7.704c.045-.313.11-.514.19-.672a2.5 2.5 0 0 1 1.092-1.093c.21-.107.496-.185 1.018-.228.533-.044 1.22-.044 2.217-.044h12.134c.996 0 1.684 0 2.217.044.522.043.808.121 1.018.228a2.5 2.5 0 0 1 1.092 1.093c.08.158.145.359.19.672l-7.806 5.464a.884.884 0 0 0-.035.024l-1.175.823c-.84.588-1.05.715-1.245.764a1.333 1.333 0 0 1-.646 0c-.196-.049-.405-.176-1.245-.764l-1.175-.823a.877.877 0 0 0-.035-.024Zm-.477 2.108-6.827 6.166a2.5 2.5 0 0 0 .78.619c.21.107.495.185 1.017.228.533.044 1.22.044 2.217.044h12.134c.996 0 1.684 0 2.217-.044.522-.043.808-.121 1.018-.228a2.5 2.5 0 0 0 .779-.62l-6.827-6.165-.54.378-.125.088c-.646.453-1.179.827-1.783.977a3.332 3.332 0 0 1-1.612 0c-.604-.15-1.137-.524-1.783-.977l-.125-.088-.54-.378Zm8.19-1.177 5.72 5.167c.01-.417.01-.915.01-1.533v-7.646l-5.73 4.012Z">
  </path>
</symbol>
<symbol id="trash" viewBox="0 0 32 32">
  <path d="M7.25 2.75a1 1 0 0 1 1-1h5.5a1 1 0 1 1 0 2h-5.5a1 1 0 0 1-1-1ZM4.576 4.5H2.75a1 1 0 0 0 0 2h.898l.583 8.748c.046.69.084 1.266.153 1.736.072.49.188.946.43 1.372a3.75 3.75 0 0 0 1.623 1.519c.442.214.904.298 1.398.337.473.038 1.05.038 1.742.038h2.846c.691 0 1.269 0 1.742-.038.494-.039.956-.123 1.398-.337a3.75 3.75 0 0 0 1.623-1.519c.242-.426.358-.881.43-1.372.069-.47.107-1.046.153-1.736l.583-8.748h.898a1 1 0 1 0 0-2H4.576Zm11.772 2H5.652l.572 8.576c.05.74.083 1.236.14 1.617.053.37.119.551.188.673.175.308.44.555.758.709.126.061.31.114.683.144.385.03.883.031 1.623.031h2.768c.74 0 1.238 0 1.623-.031.372-.03.557-.083.683-.144a1.75 1.75 0 0 0 .758-.709c.07-.122.135-.303.189-.672.056-.382.09-.879.139-1.618l.572-8.576ZM9.167 8.625a1 1 0 0 1 1 1v4.583a1 1 0 0 1-2 0V9.625a1 1 0 0 1 1-1Zm3.666 0a1 1 0 0 1 1 1v4.583a1 1 0 1 1-2 0V9.625a1 1 0 0 1 1-1Z">
  </path>
</symbol>
<symbol id="user" viewBox="0 0 32 32">
  <path d ="M3.167 17.417a6.334 6.334 0 0 1 12.666 0H3.167ZM9.5 10.292a4.749 4.749 0 0 1-4.75-4.75A4.749 4.749 0 0 1 9.5.792a4.749 4.749 0 0 1 4.75 4.75 4.749 4.749 0 0 1-4.75 4.75Z">
  </path>
</symbol>
<symbol id="user-arrow" viewBox="0 0 32 32">
  <path d="M4.792 9.75h13.417l-6.031 6.817a.906.906 0 0 1-.678.318.906.906 0 0 1-.677-.318L4.792 9.75Z">
  </path>
</symbol>
<symbol id="login-arrow" viewBox="0 0 32 32">
  <path d="M8.96.293a1 1 0 0 1 1.414 0l5 5a1 1 0 0 1 0 1.414l-5 5a1 1 0 0 1-1.415-1.414L12.252 7H1.333a1 1 0 0 1 0-2h10.92L8.958 1.707a1 1 0 0 1 0-1.414Z">
  </path>
</symbol>
<symbol id="ua-arrow" viewBox="0 0 32 32">
  <path d="M10.349 12.284a.916.916 0 0 0 1.301 0l4.199-4.208a.916.916 0 1 1 1.301 1.292l-4.207 4.208a2.75 2.75 0 0 1-3.887 0L4.85 9.368A.917.917 0 0 1 6.15 8.076l4.199 4.207Z">
  </path>
</symbol>
<symbol id="book" viewBox="0 0 32 32">
  <path d="M31.23 11.23a14.908 14.908 0 0 0-2.14-.938V28.8a14.236 14.236 0 0 0-5.09-.954c-2.764 0-5.498.83-8 2.43V11.663c-2.356-1.431-5.076-2.277-8-2.277-2.604 0-5.062.677-7.23 1.846-.48.246-.77.784-.77 1.354v18.584c0 .893.684 1.523 1.455 1.523.232 0 .465-.061.698-.184 1.76-.97 3.738-1.585 5.847-1.585 3.01 0 5.79 1.262 8 3.077 2.21-1.815 4.99-3.077 8-3.077 2.11 0 4.087.616 5.847 1.6.233.123.466.185.698.185.757 0 1.455-.631 1.455-1.523v-18.6c0-.57-.29-1.108-.77-1.354ZM13.09 28.8A14.236 14.236 0 0 0 8 27.846c-1.73 0-3.433.323-5.09.954V13.554A12.343 12.343 0 0 1 8 12.46c1.745 0 3.476.385 5.09 1.108V28.8ZM26.183 4l-7.273 7.692v14.616l7.273-6.923V4Z">
  </path>
</symbol>
<symbol id="cart" viewBox="0 0 32 32">
  <path d="M15.833 5.833h-2.5V5a3.333 3.333 0 0 0-6.666 0v.833h-2.5a.833.833 0 0 0-.834.834v9.166a2.5 2.5 0 0 0 2.5 2.5h8.334a2.5 2.5 0 0 0 2.5-2.5V6.667a.833.833 0 0 0-.834-.834ZM8.333 5a1.667 1.667 0 1 1 3.334 0v.833H8.333V5ZM15 15.833a.833.833 0 0 1-.833.834H5.833A.833.833 0 0 1 5 15.833V7.5h1.667v.833a.833.833 0 1 0 1.666 0V7.5h3.334v.833a.834.834 0 0 0 1.666 0V7.5H15v8.333Z">
  </path>
</symbol>



        <symbol id="icon-logo" viewBox="0 0 32 32">
<path fill="#f6f6f6" d="m0 0 16.343 16.171L32 32V0H0z" 
                style="fill:var(--color1, #f6f6f6)" />
<path fill="#f6f6f6" d="M4.457 4.229 16.4 16.058l11.257 11.486h-23.2V4.23z"
                style="fill:var(--color1, #f6f6f6)" />
<path fill="#4f2ee8" d="M27.733 27.618 15.79 15.789 4.533 4.303h23.2v23.314z"
                style="fill:var(--color2, #4f2ee8)" />
<path fill="#4f2ee8" d="m9.257 9.029 13.6 13.6h-13.6v-13.6z" 
                style="fill:var(--color2, #4f2ee8)" />
<path fill="#f6f6f6" d="m9.257 9.029 13.6 13.6v-13.6h-13.6z" 
                style="fill:var(--color1, #f6f6f6)" />
        </symbol>

 <symbol id="icon-Bookshelf" viewBox="0 0 178 32">
            <path
                d="M22.176 8.533c0-4.731-3.497-7.406-9.545-7.406H0v29.417h13.33c6.089 0 9.998-2.921 9.998-8.599 0-4.402-2.633-6.665-5.719-7.2v-.082c2.427-.823 4.567-2.51 4.567-6.13zm-17.28 4.772V5.282h7.858c2.921 0 4.526 1.44 4.526 4.032s-1.317 3.991-4.814 3.991h-7.57zm0 3.662h8.599c3.086 0 4.937 1.687 4.937 4.69 0 2.757-1.275 4.731-5.472 4.731H4.896v-9.422zM35.89 31.161c-6.583 0-10.574-4.567-10.574-11.109S29.307 8.943 35.89 8.943s10.574 4.567 10.574 11.109-3.991 11.109-10.574 11.109zm0-3.538c4.114 0 6.254-3.25 6.254-7.57 0-4.361-2.139-7.57-6.254-7.57s-6.254 3.209-6.254 7.57c0 4.32 2.139 7.57 6.254 7.57zm23.022 3.538c-6.583 0-10.574-4.567-10.574-11.109S52.329 8.943 58.912 8.943s10.574 4.567 10.574 11.109-3.991 11.109-10.574 11.109zm0-3.538c4.114 0 6.254-3.25 6.254-7.57 0-4.361-2.139-7.57-6.254-7.57s-6.254 3.209-6.254 7.57c0 4.32 2.139 7.57 6.254 7.57zm13.56-26.496v29.417h4.32v-7.611l2.921-2.757 6.624 10.368h5.184l-8.846-13.207 7.982-7.817H85.35l-8.558 8.434V1.127h-4.32zm29.463 16.704c-3.045-.699-5.39-.864-5.39-3.003 0-1.481 1.399-2.469 3.991-2.469 3.374 0 4.197 1.687 4.485 3.333h4.197c-.288-3.662-3.003-6.747-8.722-6.747-5.266 0-8.311 2.757-8.311 6.213 0 4.773 4.526 5.431 7.858 6.213 3.086.741 5.595.946 5.595 3.579 0 1.317-1.275 2.798-4.279 2.798-4.443 0-5.431-1.934-5.637-4.197h-4.197c.206 4.443 3.127 7.611 9.915 7.611 5.102 0 8.558-2.51 8.558-6.542 0-5.019-4.197-5.883-8.064-6.789zm22.188-8.887c-3.538 0-5.719 1.646-6.83 3.291h-.082V1.126h-4.32v29.417h4.32V17.748c0-3.127 2.263-5.143 5.431-5.143 3.003 0 4.197 1.81 4.197 4.649v13.289h4.361V16.02c0-4.814-3.086-7.077-7.077-7.077zm20.325 18.679c-3.826 0-6.089-2.921-6.089-6.459h16.128c0-7.488-3.333-12.219-10.121-12.219-6.336 0-10.327 4.279-10.327 11.109 0 6.583 3.991 11.109 10.533 11.109 5.39 0 8.517-3.045 9.586-7.035h-4.32c-.37 1.275-1.81 3.497-5.39 3.497zm-.082-15.264c3.497 0 5.801 2.345 5.801 5.595h-11.808c0-3.25 2.51-5.595 6.007-5.595zm13.165-11.232v29.417h4.361V1.127h-4.361zm18.472 3.538V1.127a15.12 15.12 0 0 0-2.88-.288c-3.456 0-5.349 1.563-5.349 6.007V9.52h-3.003v3.538h3.003v17.486h4.361V13.058h3.867V9.52h-3.867V7.216c0-2.386 1.07-2.674 3.867-2.551z" />
        </symbol>

<symbol id="icon-UA" viewBox="0 0 20 32">
<path fill="#fff" style="fill: var(--color1, #fff)" d="M9.005 30.888c-1.738-1.262-2.991-3.156-3.414-5.351h-5.591v-23.117c2.991 1.443 5.153 4.599 5.388 7.876l0.846 6.493-0.407-0.045c-0.893 0-1.676 0.812-1.676 1.608 0 0.752 0.595 1.383 1.378 1.548l1.018 0.226c1.676-3.051 2.631-6.042 2.631-8.973 0-2.645-0.36-5.291-0.423-7.996 0-1.202 0.486-2.3 1.253-3.156 0.783 0.857 1.253 1.954 1.253 3.156 0 2.705-0.423 5.351-0.423 7.996 0 2.931 0.955 5.922 2.631 8.973l1.018-0.226c0.783-0.165 1.378-0.812 1.378-1.548 0-0.812-0.783-1.608-1.676-1.608l-0.423 0.060 0.846-6.493c0.423-3.277 2.396-6.448 5.388-7.876v23.117h-5.576c-0.423 2.179-1.613 4.148-3.414 5.351-0.423 0.286-0.783 0.631-1.018 1.097-0.219-0.466-0.579-0.812-0.987-1.112zM2.647 17.556c0.235-0.857 0.893-1.608 1.738-2.074l-0.658-5.351c-0.235-1.668-0.955-3.156-2.036-4.374v11.784h0.955v0.015zM5.466 23.929c0-0.812 0.125-1.548 0.298-2.3l-0.783-0.18c-1.143-0.346-2.036-1.203-2.334-2.3h-0.955v4.78h3.774zM9.178 23.929c0-0.977-0.783-1.834-1.801-1.954-0.172 0.631-0.298 1.263-0.298 1.954h2.099zM9.178 25.552h-1.864c0.298 1.263 0.955 2.42 1.864 3.397v-3.397zM11.809 20.547c-0.72-1.262-1.378-2.585-1.801-3.968-0.423 1.383-1.081 2.706-1.801 3.968 0.72 0.165 1.316 0.631 1.801 1.157 0.486-0.526 1.081-0.992 1.801-1.157zM12.952 23.929c0-0.691-0.125-1.323-0.297-1.954-1.018 0.12-1.801 0.977-1.801 1.954h2.099zM12.717 25.552h-1.864v3.397c0.908-0.992 1.566-2.134 1.864-3.397zM18.34 23.929v-4.78h-0.955c-0.298 1.097-1.206 1.954-2.334 2.3l-0.783 0.18c0.172 0.752 0.298 1.488 0.298 2.3h3.774zM18.34 17.556v-11.799c-1.081 1.202-1.864 2.706-2.036 4.374l-0.658 5.351c0.846 0.466 1.504 1.203 1.739 2.074h0.955z"></path>
</symbol>

</defs>
</svg>


        